<svg xmlns="http://www.w3.org/2000/svg" viewBox="0 0 1226.82 250"><defs><style>.a{fill:#00003e;}.b{fill:#fff;}</style></defs><path class="a" d="M164.44,250H0V85.56A85.65,85.65,0,0,1,85.56,0H250V164.44A85.65,85.65,0,0,1,164.44,250Z"/><path class="b" d="M193.49,141.49a67.1,67.1,0,0,1-9.16,33.94A7.4,7.4,0,0,1,177.9,179H74.06a7.4,7.4,0,0,1-6.43-3.57,67.51,67.51,0,1,1,125.86-33.94Zm-11.25,0a56.26,56.26,0,1,0-106,26.26h99.52A56.36,56.36,0,0,0,182.24,141.49ZM141,149a14.87,14.87,0,0,1-2.08,7.5H113.06a14.59,14.59,0,0,1,0-15L95.28,118.69a5.62,5.62,0,0,1,8.88-6.9l17.76,22.83A14.72,14.72,0,0,1,126,134,15,15,0,0,1,141,149Z"/><path class="a" d="M373.42,82.27c-8.24,1.28-13.64,4.4-19.6,10.37-1.85,1.84-2.7,1.42-4.26-.29l-6.11-6.53c-1.42-1.7-1.84-2.55-.28-4.26,8.66-8.24,17.61-13.06,30.25-14.34Zm7.1-15.19c27.83,2,38.48,26.69,23,45.44l-44.16,55.8H343.88c-1,0-1.28-.28-1.28-1.28v-1.7c0-1,.29-1.28,1.28-2.56l45.87-56.94c8.66-10.65,3-22.15-9.23-23.57Zm-.43,86.62h28.68c2.28,0,3,.56,3,3v8.66c0,2.27-.71,3-3,3H368.45Z"/><path class="a" d="M448.82,169.6c-7.39-1.14-15.2-2.84-24.14-8.8-2-1.42-1.71-2.28-.71-4.26l3.12-5.4c1-2,1.7-3,4-1.28a41.08,41.08,0,0,0,17.75,7.1Zm7.1-12.35c8.66-.71,12.78-4.55,12.78-9.66,0-4.69-6.25-7-17-8.38-14.77-2-27.69-6.53-27.69-21.72,0-13.35,10.5-22.58,28.11-23v12.64c-9.23.57-12.78,4.12-12.78,9.51,0,5.54,6.11,7,17,8.52C471.11,127,484,131.69,484,146.74c0,13.35-10.93,22.43-28.11,23.14Zm3.26-62.34a58.32,58.32,0,0,1,20.88,7.53c2.27,1.42,1.7,2.41.85,4.4l-3.13,5.25c-1,2-1.84,2.84-4,1.42-5.26-3.27-9.09-5.11-14.63-6Z"/><path class="a" d="M561.7,165.34c1.57,2.27.86,3-1.42,3H547.65c-2,0-2.84-.57-4.41-3L494.54,99c-1.42-2.28-.71-3,1.42-3h12.78c2.13,0,3,.57,4.4,3Zm-38.48-15.05-10.08,15.05c-1.42,2.41-2.27,3-4.4,3H496c-2.13,0-2.84-.71-1.42-3l19.31-27.69Zm9.94-36.21,10.08-15c1.57-2.56,2.42-3,4.41-3h12.63c2.28,0,3,.71,1.42,3l-19.17,27.83Z"/><path class="a" d="M604.44,109.25c-9.79,1.7-18,10.65-18,23,0,12.07,7.81,21.16,18,22.87v14.62a37.74,37.74,0,0,1,0-75.12Zm7-14.63a36.7,36.7,0,0,1,22.72,10.51c1.28,1.28,1,2-.42,3.69l-5.26,5.68c-1.56,1.71-2.55,2.13-4.26.57a23.3,23.3,0,0,0-12.78-6Zm0,60.64a23.19,23.19,0,0,0,12.78-6c1.85-1.56,2.7-1.13,4.26.57l5.26,5.68c1.42,1.71,1.7,2.42.42,3.69a36.64,36.64,0,0,1-22.72,10.51Z"/><path class="a" d="M688.5,71.9c0-2.27.71-3,3-3H702.7c2.42,0,3,.71,3,3v93.44c0,2.27-.71,3-3,3H691.49c-2.28,0-3-.71-3-3Z"/><path class="a" d="M746.87,165.34c0,2.27-.71,3-3,3H733.66c-2.27,0-3-.71-3-3V99c0-2.28.71-3,3-3h5.11c2.7,0,4.4.43,5.54,1.71l2.56,4Zm7.1-67c3.4-2.56,7.66-3.84,12.92-3.84,15.62,0,27.55,8.38,27.55,32.8v38.06c0,2.27-.71,3-3,3H781.23c-2.27,0-3-.71-3-3V130.83c0-15.05-5.54-21.86-15.48-21.86a12.49,12.49,0,0,0-8.8,3.26Z"/><path class="a" d="M835.47,169.6c-7.38-1.14-15.19-2.84-24.14-8.8-2-1.42-1.7-2.28-.71-4.26l3.13-5.4c1-2,1.7-3,4-1.28a41.18,41.18,0,0,0,17.75,7.1Zm7.1-12.35c8.66-.71,12.78-4.55,12.78-9.66,0-4.69-6.24-7-17-8.38-14.77-2-27.69-6.53-27.69-21.72,0-13.35,10.51-22.58,28.12-23v12.64c-9.23.57-12.78,4.12-12.78,9.51,0,5.54,6.1,7,17,8.52,14.77,1.85,27.69,6.54,27.69,21.59,0,13.35-10.94,22.43-28.12,23.14Zm3.27-62.34a58.21,58.21,0,0,1,20.87,7.53c2.27,1.42,1.71,2.41.85,4.4l-3.12,5.25c-1,2-1.85,2.84-4,1.42-5.25-3.27-9.08-5.11-14.62-6Z"/><path class="a" d="M898.94,63.39a10.09,10.09,0,0,1,9.94,10.08,9.94,9.94,0,0,1-19.88,0A10,10,0,0,1,898.94,63.39ZM891,99c0-2.28.71-3,3-3H904.2c2.27,0,3,.71,3,3v66.31c0,2.27-.71,3-3,3H894c-2.27,0-3-.71-3-3Z"/><path class="a" d="M977,114.22A17.9,17.9,0,0,0,964,108.68c-11.79,0-20.31,10.23-20.31,23.43,0,12.78,8.52,23.29,20.31,23.29A18,18,0,0,0,977,149.86v14.63a26.94,26.94,0,0,1-16.61,5.39c-19.45,0-32.8-17-32.8-37.77,0-20.16,13.35-37.63,32.8-37.63A30.31,30.31,0,0,1,977,99Zm7.1-14.48A6,6,0,0,1,989.4,96h8c2.27,0,3,.71,3,3v63.33c0,28.54-12.49,41-34.65,41A77.58,77.58,0,0,1,937,198.14c-2-.85-2.27-1.28-1.7-3.55l2.13-8.52c.56-2.41,1-2.7,3.12-1.84,4.54,1.84,12.5,5,22.58,5,13.63,0,21-7.81,21-24.85Z"/><path class="a" d="M1040.23,165.34c0,2.27-.57,3-3,3H1027c-2.13,0-3-.71-3-3V66.51c0-2.27.85-3,3-3h10.22c2.27,0,3,.71,3,3Zm7.1-67a22.11,22.11,0,0,1,12.92-3.84c15.62,0,27.55,8.38,27.55,32.8v38.06c0,2.27-.57,3-3,3H1074.6c-2.13,0-3-.71-3-3V130.83c0-15.05-5.39-21.86-15.47-21.86a13.79,13.79,0,0,0-8.81,3.26Z"/><path class="a" d="M1106.26,109c-2.27,0-3-.71-3-3V99c0-2.28.71-3,3-3h5.26V82.13c0-2.27.56-3,3-3h10.08c2.27,0,3,.71,3,3V96h21.87c2.27,0,3,.71,3,3.13V106c0,2.27-.71,3-3,3Zm21.3,7.24v21.3c0,12.78,4.4,17.89,13.06,17.89a18,18,0,0,0,8.53-1.7c2.69-1.42,3.26-1.28,3.83,1.7l1.28,7.1c.42,2.13.28,2.84-1.57,3.83a26.07,26.07,0,0,1-13.77,3.55c-18.74,0-27.4-11.78-27.4-31.38V116.21Z"/><path class="a" d="M1191.6,169.6c-7.38-1.14-15.19-2.84-24.14-8.8-2-1.42-1.7-2.28-.71-4.26l3.13-5.4c1-2,1.7-3,4-1.28a41.18,41.18,0,0,0,17.75,7.1Zm7.1-12.35c8.66-.71,12.78-4.55,12.78-9.66,0-4.69-6.25-7-17-8.38-14.77-2-27.69-6.53-27.69-21.72,0-13.35,10.51-22.58,28.12-23v12.64c-9.23.57-12.78,4.12-12.78,9.51,0,5.54,6.1,7,17,8.52,14.77,1.85,27.69,6.54,27.69,21.59,0,13.35-10.94,22.43-28.12,23.14ZM1202,94.91a58.21,58.21,0,0,1,20.87,7.53c2.27,1.42,1.71,2.41.85,4.4l-3.12,5.25c-1,2-1.85,2.84-4,1.42-5.25-3.27-9.08-5.11-14.62-6Z"/></svg>