<?xml version="1.0" encoding="utf-8"?>
<!-- Generator: Adobe Illustrator 26.3.1, SVG Export Plug-In . SVG Version: 6.00 Build 0)  -->
<svg version="1.1" id="Ebene_1" xmlns="http://www.w3.org/2000/svg" xmlns:xlink="http://www.w3.org/1999/xlink" x="0px" y="0px"
	 viewBox="0 0 1968.9 250" style="enable-background:new 0 0 1968.9 250;" xml:space="preserve">
<style type="text/css">
	.st0{fill:#FFFFFF;}
	.st1{fill:#00003E;}
</style>
<path class="st0" d="M164.4,250H0V85.6C0,38.4,38.4,0,85.6,0H250v164.4C250,211.6,211.6,250,164.4,250z"/>
<g>
	<path class="st1" d="M182.2,96.5c0,51.9-31.9,80.8-51.9,89.1c-2.8,1.1-5.9,1.1-8.6,0C96.6,175.2,69.7,143,69.7,96.5
		c0-4.5,2.7-8.6,6.9-10.4l45-18.8c1.1-0.5,3.1-0.9,4.3-0.9c1.2,0,3.2,0.4,4.3,0.9l45,18.8C179.5,87.8,182.2,91.9,182.2,96.5z
		 M171,96.5l-45-18.8L81,96.5c0,39.7,22.2,69.2,45,78.8C147.9,166.1,171,137.2,171,96.5z M118.2,134.6l33.1-32.9
		c1.1-1.1,2.9-1.1,4,0l5.3,5.3c1.1,1.1,1.1,2.9,0,4l-40.5,40.1c-1.1,1.1-2.9,1.1-4,0l-21.3-21.4c-1.1-1.1-1.1-2.9,0-4l5.3-5.3
		c1.1-1.1,2.9-1.1,4,0L118.2,134.6z"/>
</g>
<g>
	<path class="st0" d="M392,170c-26.8-2-47.7-24.3-47.7-51.4c0-27.4,21.3-49.6,47.7-51.5v15.1c-18,2.3-30.4,18.6-30.4,36.5
		c0,17.5,12.4,34.5,30.4,36.4V170z M399.3,67.1c12.5,1.4,24.7,6.1,33.2,14.6c1.6,1.6,1.3,2.6-0.3,4.3l-6.5,7.1
		c-1.6,1.7-2.6,2-4.3,0.3c-6-6.4-13.2-9.9-22.2-11.1V67.1z M399.3,155c8.9-1.1,16-4.7,22.3-11.2c1.7-1.7,2.7-1.3,4.3,0.3l6.5,7.1
		c1.6,1.8,1.8,2.7,0.1,4.4c-8.7,8.5-21.2,13.5-33.2,14.5V155z"/>
	<path class="st0" d="M478.9,169.7c-18.7-1.8-33.9-17.8-33.9-37.5c0-19.9,15.3-35.9,33.9-37.6v14.8c-10.2,1.8-17.9,11.1-17.9,22.9
		c0,12.2,8.1,21.3,17.9,23V169.7z M486,155.3c10.2-1.7,18-11.1,18-23s-8-21.3-18-22.9V94.6c19.2,2,34.1,18,34.1,37.6
		c0,19.5-14.8,35.6-34.1,37.5V155.3z"/>
	<path class="st0" d="M554.7,165.3c0,2.3-0.7,3-3,3h-10.2c-2.3,0-3-0.7-3-3V99c0-2.3,0.7-3,3-3h5.1c2.7,0,4.4,0.4,5.5,1.7l2.6,4
		V165.3z M561.8,98.3c3.4-2.6,7.7-3.8,12.9-3.8c15.6,0,27.5,8.4,27.5,32.8v38.1c0,2.3-0.7,3-3,3h-10.2c-2.3,0-3-0.7-3-3v-34.5
		c0-15.1-5.5-21.9-15.5-21.9c-4.1,0-6.7,1.4-8.8,3.3V98.3z"/>
	<path class="st0" d="M620.8,109c-2.3,0-3-0.7-3-3v-7c0-2.3,0.7-3,3-3h5.3V82.1c0-2.3,0.6-3,3-3h10.1c2.3,0,3,0.7,3,3V96h21.9
		c2.3,0,3,0.7,3,3.1v6.8c0,2.3-0.7,3-3,3H620.8z M642.1,116.2v21.3c0,12.8,4.4,17.9,13.1,17.9c3.1,0,5.5-0.3,8.5-1.7
		c2.7-1.4,3.3-1.3,3.8,1.7l1.3,7.1c0.4,2.1,0.3,2.8-1.6,3.8c-5.7,3.5-11.9,3.5-13.8,3.5c-18.7,0-27.4-11.8-27.4-31.4v-22.3H642.1z"
		/>
	<path class="st0" d="M697.3,132.8c0,13.2,9.4,23.1,21.9,23.1c5,0,12.1-1.1,19.5-5.4c2.1-1,2.8-1.6,4.3,0.3l4.1,5.1
		c1.4,1.7,1.7,2.6,0.4,4c-6.5,6.4-18.3,9.9-28.7,9.9c-21.4,0-38.2-16.9-38.2-37.6c0-19.5,14.6-35.5,33.4-37.5v13.3
		c-10.2,2.1-16.6,11.2-16.6,23.7V132.8z M704.7,126.9h32.1c-1-8.4-6-16.9-15.8-18.9V94.6c21.2,1.7,32.2,19.2,32.2,39.8
		c0,2.3-0.4,3.1-2.8,3.1h-45.7C703.8,134.2,703.8,130.1,704.7,126.9z"/>
	<path class="st0" d="M787.1,165.3c0,2.3-0.7,3-3,3h-10.2c-2.3,0-3-0.7-3-3V99c0-2.3,0.7-3,3-3h5.1c2.7,0,4.4,0.4,5.5,1.7l2.6,4
		V165.3z M794.2,98.3c3.4-2.6,7.7-3.8,12.9-3.8c15.6,0,27.5,8.4,27.5,32.8v38.1c0,2.3-0.7,3-3,3h-10.2c-2.3,0-3-0.7-3-3v-34.5
		c0-15.1-5.5-21.9-15.5-21.9c-4.1,0-6.7,1.4-8.8,3.3V98.3z"/>
	<path class="st0" d="M853.1,109c-2.3,0-3-0.7-3-3v-7c0-2.3,0.7-3,3-3h5.3V82.1c0-2.3,0.6-3,3-3h10.1c2.3,0,3,0.7,3,3V96h21.9
		c2.3,0,3,0.7,3,3.1v6.8c0,2.3-0.7,3-3,3H853.1z M874.4,116.2v21.3c0,12.8,4.4,17.9,13.1,17.9c3.1,0,5.5-0.3,8.5-1.7
		c2.7-1.4,3.3-1.3,3.8,1.7l1.3,7.1c0.4,2.1,0.3,2.8-1.6,3.8c-5.7,3.5-11.9,3.5-13.8,3.5c-18.7,0-27.4-11.8-27.4-31.4v-22.3H874.4z"
		/>
	<path class="st0" d="M983.2,169.6c-12.8-1-22.3-4-32-10.5c-2.1-1.3-1.8-2.3-0.9-4.3l4.4-7.1c1.1-2,2-2.7,4.1-1.3
		c8.5,5.4,16.2,7.4,24.3,8.2V169.6z M984.9,82.6c-13.5,1.3-16.9,8.7-16.9,15.3c0,9.5,10.1,11.6,24.6,13.5
		c17.3,2.1,33.9,7.5,33.9,28.5c0,15.3-12.2,29.8-36.1,30v-15.1c11.5-0.4,19.5-4.4,19.5-14.2c0-10.2-9.5-12.9-25.4-15.1
		c-15.5-2-33.1-7.4-33.1-27.1c0-12.4,8.9-29.8,33.5-31.1V82.6z M992,67.4c11.8,0.9,20.9,4.5,31,10.8c2,1.1,1.7,2.3,0.7,4.3l-4.3,7
		c-1.1,2-2.1,2.8-4.1,1.4c-8.7-5.7-15.5-8-23.3-8.4V67.4z"/>
	<path class="st0" d="M1055.9,132.8c0,13.2,9.4,23.1,21.9,23.1c5,0,12.1-1.1,19.5-5.4c2.1-1,2.8-1.6,4.3,0.3l4.1,5.1
		c1.4,1.7,1.7,2.6,0.4,4c-6.5,6.4-18.3,9.9-28.7,9.9c-21.4,0-38.2-16.9-38.2-37.6c0-19.5,14.6-35.5,33.4-37.5v13.3
		c-10.2,2.1-16.6,11.2-16.6,23.7V132.8z M1063.2,126.9h32.1c-1-8.4-6-16.9-15.8-18.9V94.6c21.2,1.7,32.2,19.2,32.2,39.8
		c0,2.3-0.4,3.1-2.8,3.1h-45.7C1062.4,134.2,1062.4,130.1,1063.2,126.9z"/>
	<path class="st0" d="M1157.2,109.3c-9.8,1.7-18,10.6-18,23c0,12.1,7.8,21.2,18,22.9v14.6c-19.7-1.8-34.1-18.5-34.1-37.5
		c0-19.2,14.3-35.8,34.1-37.6V109.3z M1164.2,94.6c8.4,0.9,16,4,22.7,10.5c1.3,1.3,1,2-0.4,3.7l-5.3,5.7c-1.6,1.7-2.6,2.1-4.3,0.6
		c-4.3-4-8.7-5.3-12.8-6V94.6z M1164.2,155.3c5.1-0.9,8.8-2.4,12.8-6c1.8-1.6,2.7-1.1,4.3,0.6l5.3,5.7c1.4,1.7,1.7,2.4,0.4,3.7
		c-6.8,6.5-13.9,9.5-22.7,10.5V155.3z"/>
	<path class="st0" d="M1242.6,166.1c-3.4,2.6-7.7,3.8-12.9,3.8c-15.6,0-27.5-8.4-27.5-32.8V99c0-2.3,0.7-3,3-3h10.2c2.3,0,3,0.7,3,3
		v34.6c0,14.9,5.5,21.7,15.5,21.7c4.1,0,6.7-1.4,8.8-3.3V166.1z M1249.7,99c0-2.3,0.7-3,3-3h10.2c2.3,0,3,0.7,3,3v66.3
		c0,2.3-0.7,3-3,3h-5.1c-2.7,0-4.4-0.4-5.5-1.7l-2.6-4V99z"/>
	<path class="st0" d="M1306.8,165.3c-0.1,2.3-0.7,3-3,3h-10.2c-2.3,0-3-0.7-3-3V99c0-2.3,0.7-3,3-3h5.1c4.4,0,5,0.9,8.1,4.4V165.3z
		 M1313.9,99.6c3.8-2.7,8.9-5.1,18.6-5.1c2.8,0,3.1,0.9,2.8,2.8l-1.6,10.4c-0.4,2.3-1.1,2.8-3.4,2.8c-7,0-12.1,1.8-16.5,5.5V99.6z"
		/>
	<path class="st0" d="M1360.3,63.4c5.4,0,9.9,4.5,9.9,10.1c0,5.5-4.5,9.8-9.9,9.8c-5.5,0-9.9-4.3-9.9-9.8
		C1350.4,67.9,1354.8,63.4,1360.3,63.4z M1352.3,99c0-2.3,0.7-3,3-3h10.2c2.3,0,3,0.7,3,3v66.3c0,2.3-0.7,3-3,3h-10.2
		c-2.3,0-3-0.7-3-3V99z"/>
	<path class="st0" d="M1392,109c-2.3,0-3-0.7-3-3v-7c0-2.3,0.7-3,3-3h5.3V82.1c0-2.3,0.6-3,3-3h10.1c2.3,0,3,0.7,3,3V96h21.9
		c2.3,0,3,0.7,3,3.1v6.8c0,2.3-0.7,3-3,3H1392z M1413.3,116.2v21.3c0,12.8,4.4,17.9,13.1,17.9c3.1,0,5.5-0.3,8.5-1.7
		c2.7-1.4,3.3-1.3,3.8,1.7l1.3,7.1c0.4,2.1,0.3,2.8-1.6,3.8c-5.7,3.5-11.9,3.5-13.8,3.5c-18.7,0-27.4-11.8-27.4-31.4v-22.3H1413.3z"
		/>
	<path class="st0" d="M1476.7,194.3c-1.1,2.4-2,3-3.8,3h-11.6c-2.1,0-2.7-0.7-1.6-3l14.6-32.5L1445.9,99c-1-2.3-0.6-3,1.6-3h11.6
		c2,0,2.7,0.7,4,3l28.3,62.9L1476.7,194.3z M1487.1,134.7l15.5-35.6c1.3-2.3,2-3,4-3h11.6c2.1,0,2.6,0.7,1.6,3l-24.4,54.1
		L1487.1,134.7z"/>
	<path class="st0" d="M1586.2,165.3c-0.1,2.3-0.7,3-3,3H1572c-2.4,0-3-0.7-3-3V71.9c0-2.4,0.7-3,3-3h14.2V165.3z M1593.5,114.6h12.4
		c14.8,0,19.6-7,19.6-15.9c0-8.7-4.8-15.5-19.6-15.5h-12.4V68.9h13.1c16.6,0,35.5,6.8,35.5,29.8s-18.9,30.2-35.5,30.2h-13.1V114.6z"
		/>
	<path class="st0" d="M1683.5,169.7c-18.7-1.8-33.9-17.8-33.9-37.5c0-19.9,15.3-35.9,33.9-37.6v14.8c-10.2,1.8-17.9,11.1-17.9,22.9
		c0,12.2,8.1,21.3,17.9,23V169.7z M1690.6,155.3c10.2-1.7,18-11.1,18-23s-8-21.3-18-22.9V94.6c19.2,2,34.1,18,34.1,37.6
		c0,19.5-14.8,35.6-34.1,37.5V155.3z"/>
	<path class="st0" d="M1743.4,66.5c0-2.3,0.7-3,3-3h10.2c2.4,0,3,0.7,3,3v98.8c0,2.3-0.7,3-3,3h-10.2c-2.3,0-3-0.7-3-3V66.5z"/>
	<path class="st0" d="M1794.8,63.4c5.4,0,9.9,4.5,9.9,10.1c0,5.5-4.5,9.8-9.9,9.8c-5.5,0-9.9-4.3-9.9-9.8
		C1784.9,67.9,1789.3,63.4,1794.8,63.4z M1786.9,99c0-2.3,0.7-3,3-3h10.2c2.3,0,3,0.7,3,3v66.3c0,2.3-0.7,3-3,3h-10.2
		c-2.3,0-3-0.7-3-3V99z"/>
	<path class="st0" d="M1857.6,109.3c-9.8,1.7-18,10.6-18,23c0,12.1,7.8,21.2,18,22.9v14.6c-19.7-1.8-34.1-18.5-34.1-37.5
		c0-19.2,14.3-35.8,34.1-37.6V109.3z M1864.5,94.6c8.4,0.9,16,4,22.7,10.5c1.3,1.3,1,2-0.4,3.7l-5.3,5.7c-1.6,1.7-2.6,2.1-4.3,0.6
		c-4.3-4-8.7-5.3-12.8-6V94.6z M1864.5,155.3c5.1-0.9,8.8-2.4,12.8-6c1.8-1.6,2.7-1.1,4.3,0.6l5.3,5.7c1.4,1.7,1.7,2.4,0.4,3.7
		c-6.8,6.5-13.9,9.5-22.7,10.5V155.3z"/>
	<path class="st0" d="M1924.9,194.3c-1.1,2.4-2,3-3.8,3h-11.6c-2.1,0-2.7-0.7-1.6-3l14.6-32.5L1894.1,99c-1-2.3-0.6-3,1.6-3h11.6
		c2,0,2.7,0.7,4,3l28.3,62.9L1924.9,194.3z M1935.2,134.7l15.5-35.6c1.3-2.3,2-3,4-3h11.6c2.1,0,2.6,0.7,1.6,3l-24.4,54.1
		L1935.2,134.7z"/>
</g>
</svg>
