<?xml version="1.0" encoding="utf-8"?>
<!-- Generator: Adobe Illustrator 25.4.1, SVG Export Plug-In . SVG Version: 6.00 Build 0)  -->
<svg version="1.1" id="Ebene_1" xmlns="http://www.w3.org/2000/svg" xmlns:xlink="http://www.w3.org/1999/xlink" x="0px" y="0px"
	 viewBox="0 0 1276.5 250" style="enable-background:new 0 0 1276.5 250;" xml:space="preserve">
<style type="text/css">
	.st0{fill:#FFFFFF;}
	.st1{fill:none;stroke:#00003E;stroke-width:8;stroke-miterlimit:10;}
</style>
<path class="st0" d="M164.4,250H0V85.6C0,38.4,38.4,0,85.6,0H250v164.4C250,211.6,211.6,250,164.4,250z"/>
<g>
	<path class="st0" d="M367.3,165.3c-0.1,2.3-0.7,3-3,3h-11.2c-2.4,0-3-0.7-3-3V71.9c0-2.4,0.7-3,3-3h14.2V165.3z M374.6,114.6h12.4
		c14.8,0,19.6-7,19.6-15.9c0-8.7-4.8-15.5-19.6-15.5h-12.4V68.9h13.1c16.6,0,35.5,6.8,35.5,29.8S404.2,129,387.6,129h-13.1V114.6z"
		/>
	<path class="st0" d="M438.6,66.5c0-2.3,0.7-3,3-3h10.2c2.4,0,3,0.7,3,3v98.8c0,2.3-0.7,3-3,3h-10.2c-2.3,0-3-0.7-3-3V66.5z"/>
	<path class="st0" d="M516.4,166.1c-5.5,2.8-9.7,3.8-16.5,3.8c-12.8,0-24.8-7.8-24.8-23.7c0-15.5,12.2-22.9,27.5-22.9
		c4.4,0,8,0.6,13.8,1.7v11.2c-4.3-1.1-6.8-1.4-9.9-1.4c-10.8,0-15.3,4.8-15.3,11.4c0,5.5,4.1,11.4,13.9,11.4c4.3,0,7.7-1.4,11.4-3.7
		V166.1z M523.5,127c0-13.3-3.4-18.6-16.5-18.6c-8.1,0-15.6,1.1-20.9,2.1c-2.3,0.3-2.8-0.6-3.4-2.8l-1.7-6.8
		c-0.6-2.3-0.3-3.1,1.8-3.7c1.7-0.4,14.3-2.7,24.8-2.7c27.1,0,31.9,11.9,31.9,34.4v36.5c0,2.3-0.6,3-3,3h-8.7c-2,0-3.1-1-4.5-3V127z
		"/>
	<path class="st0" d="M558,109c-2.3,0-3-0.7-3-3v-7c0-2.3,0.7-3,3-3h5.3V82.1c0-2.3,0.6-3,3-3h10.1c2.3,0,3,0.7,3,3V96h21.9
		c2.3,0,3,0.7,3,3.1v6.8c0,2.3-0.7,3-3,3H558z M579.3,116.2v21.3c0,12.8,4.4,17.9,13.1,17.9c3.1,0,5.5-0.3,8.5-1.7
		c2.7-1.4,3.3-1.3,3.8,1.7l1.3,7.1c0.4,2.1,0.3,2.8-1.6,3.8c-5.7,3.5-11.9,3.5-13.8,3.5c-18.7,0-27.4-11.8-27.4-31.4v-22.3H579.3z"
		/>
	<path class="st0" d="M617.9,109.3c-2.3,0-3.1-0.7-3.1-3v-7c0-2.3,0.7-3,3.1-3h8.7v-4.4c0-19.9,8.8-31.7,27.5-31.7
		c1.8,0,7.7,0,13.1,3.3c1.8,1,2,1.7,1.6,3.8l-1.3,7.1c-0.6,3-1.1,3-3.8,1.7c-2.7-1.1-5-1.4-7.8-1.4c-8.7,0-13.1,5.1-13.1,17.9v3.7
		h21.7c2.4,0,3.1,0.7,3.1,3v7c0,2.3-0.7,3-3.1,3H617.9z M642.8,116.4v49c0,2.3-0.7,3-3.1,3h-9.9c-2.4,0-3.1-0.7-3.1-3v-49H642.8z"/>
	<path class="st0" d="M708.1,169.7c-18.7-1.8-33.9-17.8-33.9-37.5c0-19.9,15.3-35.9,33.9-37.6v14.8c-10.2,1.8-17.9,11.1-17.9,22.9
		c0,12.2,8.1,21.3,17.9,23V169.7z M715.2,155.3c10.2-1.7,18-11.1,18-23s-8-21.3-18-22.9V94.6c19.2,2,34.1,18,34.1,37.6
		c0,19.5-14.8,35.6-34.1,37.5V155.3z"/>
	<path class="st0" d="M783.9,165.3c-0.1,2.3-0.7,3-3,3h-10.2c-2.3,0-3-0.7-3-3V99c0-2.3,0.7-3,3-3h5.1c4.4,0,5,0.9,8.1,4.4V165.3z
		 M791,99.6c3.8-2.7,8.9-5.1,18.6-5.1c2.8,0,3.1,0.9,2.8,2.8l-1.6,10.4c-0.4,2.3-1.1,2.8-3.4,2.8c-7,0-12.1,1.8-16.5,5.5V99.6z"/>
	<path class="st0" d="M842.6,165.3c0,2.3-0.6,3-3,3h-10.2c-2.1,0-3-0.7-3-3V99c0-2.3,0.9-3,3-3h5.3c2.7,0,4.4,0.4,5.4,1.7l2.6,4
		V165.3z M849.7,97.9c3.4-2.3,7-3.4,11.9-3.4c20.3,0,27.3,14.3,27.3,34.6v36.2c0,2.3-0.7,3-3,3h-10.2c-2.3,0-3-0.7-3-3v-34.5
		c0-13.9-4.8-21.9-14.9-21.9c-3.4,0-5.7,1-8.1,2.8V97.9z M889.7,102.2c4.7-4.7,10.6-7.7,18-7.7c15.6,0,27.3,8.4,27.3,32.7v38.2
		c0,2.3-0.7,3-3,3h-10.2c-2.3,0-3-0.7-3-3v-34.5c0-15.1-5.5-21.9-14.9-21.9c-4.1,0-7.5,1.7-9.5,4.3
		C893.7,108.7,892.1,105.6,889.7,102.2z"/>
	<path class="st0" d="M1009.8,168.3h-14.2c-2.3,0-3-0.7-3-3V71.9c0-2.3,0.7-3,3-3h14.2V168.3z M1017.1,154h14.1
		c20.6,0,32.9-16.9,32.9-35.4c0-18.6-12.4-35.4-32.9-35.4h-14.1V68.9h14.2c28,0,50.1,21.4,50.1,49.7s-22.2,49.7-50.1,49.7h-14.2V154
		z"/>
	<path class="st0" d="M1116.5,165.3c0,2.3-0.7,3-3,3h-10.2c-2.3,0-3-0.7-3-3V99c0-2.3,0.7-3,3-3h5.1c2.7,0,4.4,0.4,5.5,1.7l2.6,4
		V165.3z M1123.6,98.3c3.4-2.6,7.7-3.8,12.9-3.8c15.6,0,27.5,8.4,27.5,32.8v38.1c0,2.3-0.7,3-3,3h-10.2c-2.3,0-3-0.7-3-3v-34.5
		c0-15.1-5.5-21.9-15.5-21.9c-4.1,0-6.7,1.4-8.8,3.3V98.3z"/>
	<path class="st0" d="M1202,165.3c0,2.3-0.7,3-3,3h-10.2c-2.3,0-3-0.7-3-3V99c0-2.3,0.7-3,3-3h5.1c2.7,0,4.4,0.4,5.5,1.7l2.6,4
		V165.3z M1209.1,98.3c3.4-2.6,7.7-3.8,12.9-3.8c15.6,0,27.5,8.4,27.5,32.8v38.1c0,2.3-0.7,3-3,3h-10.2c-2.3,0-3-0.7-3-3v-34.5
		c0-15.1-5.5-21.9-15.5-21.9c-4.1,0-6.7,1.4-8.8,3.3V98.3z"/>
</g>
<g>
	<path class="st1" d="M149.5,107.6V75.9c-5.4-1.9-11.3-2.9-17.4-2.9h-52v69.4h34.7v-34.7H149.5z"/>
	<path class="st1" d="M149.5,107.6h-34.7v34.7h17.4c9.5,0,17.4-7.8,17.4-17.4V107.6z"/>
	<path class="st1" d="M149.5,75.9v31.7h31.7C175.8,92.9,164.2,81.1,149.5,75.9 M80.1,177h34.7v-34.7H80.1V177z"/>
	<path class="st1" d="M181.2,107.6h-31.7V125c0,9.5-7.8,17.4-17.4,17.4h-17.4V177h17.4c28.8,0,52-23.2,52-52
		C184.1,118.9,183.1,113,181.2,107.6"/>
</g>
</svg>
