<?xml version="1.0" encoding="utf-8"?>
<!-- Generator: Adobe Illustrator 25.4.1, SVG Export Plug-In . SVG Version: 6.00 Build 0)  -->
<svg version="1.1" id="Ebene_1" xmlns="http://www.w3.org/2000/svg" xmlns:xlink="http://www.w3.org/1999/xlink" x="0px" y="0px"
	 viewBox="0 0 1531.7 250" style="enable-background:new 0 0 1531.7 250;" xml:space="preserve">
<style type="text/css">
	.st0{fill:#00003E;}
	.st1{fill:#FFFFFF;}
</style>
<path class="st0" d="M164.4,250H0V85.6C0,38.4,38.4,0,85.6,0H250v164.4C250,211.6,211.6,250,164.4,250z"/>
<g>
	<path class="st0" d="M367.3,165.3c-0.1,2.3-0.7,3-3,3h-11.2c-2.4,0-3-0.7-3-3V71.9c0-2.4,0.7-3,3-3h14.2V165.3z M374.6,114.6h12.4
		c14.8,0,19.6-7,19.6-15.9c0-8.7-4.8-15.5-19.6-15.5h-12.4V68.9h13.1c16.6,0,35.5,6.8,35.5,29.8S404.2,129,387.6,129h-13.1V114.6z"
		/>
	<path class="st0" d="M438.6,66.5c0-2.3,0.7-3,3-3h10.2c2.4,0,3,0.7,3,3v98.8c0,2.3-0.7,3-3,3h-10.2c-2.3,0-3-0.7-3-3V66.5z"/>
	<path class="st0" d="M516.4,166.1c-5.5,2.8-9.7,3.8-16.5,3.8c-12.8,0-24.8-7.8-24.8-23.7c0-15.5,12.2-22.9,27.5-22.9
		c4.4,0,8,0.6,13.8,1.7v11.2c-4.3-1.1-6.8-1.4-9.9-1.4c-10.8,0-15.3,4.8-15.3,11.4c0,5.5,4.1,11.4,13.9,11.4c4.3,0,7.7-1.4,11.4-3.7
		V166.1z M523.5,127c0-13.3-3.4-18.6-16.5-18.6c-8.1,0-15.6,1.1-20.9,2.1c-2.3,0.3-2.8-0.6-3.4-2.8l-1.7-6.8
		c-0.6-2.3-0.3-3.1,1.8-3.7c1.7-0.4,14.3-2.7,24.8-2.7c27.1,0,31.9,11.9,31.9,34.4v36.5c0,2.3-0.6,3-3,3h-8.7c-2,0-3.1-1-4.5-3V127z
		"/>
	<path class="st0" d="M558,109c-2.3,0-3-0.7-3-3v-7c0-2.3,0.7-3,3-3h5.3V82.1c0-2.3,0.6-3,3-3h10.1c2.3,0,3,0.7,3,3V96h21.9
		c2.3,0,3,0.7,3,3.1v6.8c0,2.3-0.7,3-3,3H558z M579.3,116.2v21.3c0,12.8,4.4,17.9,13.1,17.9c3.1,0,5.5-0.3,8.5-1.7
		c2.7-1.4,3.3-1.3,3.8,1.7l1.3,7.1c0.4,2.1,0.3,2.8-1.6,3.8c-5.7,3.5-11.9,3.5-13.8,3.5c-18.7,0-27.4-11.8-27.4-31.4v-22.3H579.3z"
		/>
	<path class="st0" d="M617.9,109.3c-2.3,0-3.1-0.7-3.1-3v-7c0-2.3,0.7-3,3.1-3h8.7v-4.4c0-19.9,8.8-31.7,27.5-31.7
		c1.8,0,7.7,0,13.1,3.3c1.8,1,2,1.7,1.6,3.8l-1.3,7.1c-0.6,3-1.1,3-3.8,1.7c-2.7-1.1-5-1.4-7.8-1.4c-8.7,0-13.1,5.1-13.1,17.9v3.7
		h21.7c2.4,0,3.1,0.7,3.1,3v7c0,2.3-0.7,3-3.1,3H617.9z M642.8,116.4v49c0,2.3-0.7,3-3.1,3h-9.9c-2.4,0-3.1-0.7-3.1-3v-49H642.8z"/>
	<path class="st0" d="M708.1,169.7c-18.7-1.8-33.9-17.8-33.9-37.5c0-19.9,15.3-35.9,33.9-37.6v14.8c-10.2,1.8-17.9,11.1-17.9,22.9
		c0,12.2,8.1,21.3,17.9,23V169.7z M715.2,155.3c10.2-1.7,18-11.1,18-23s-8-21.3-18-22.9V94.6c19.2,2,34.1,18,34.1,37.6
		c0,19.5-14.8,35.6-34.1,37.5V155.3z"/>
	<path class="st0" d="M783.9,165.3c-0.1,2.3-0.7,3-3,3h-10.2c-2.3,0-3-0.7-3-3V99c0-2.3,0.7-3,3-3h5.1c4.4,0,5,0.9,8.1,4.4V165.3z
		 M791,99.6c3.8-2.7,8.9-5.1,18.6-5.1c2.8,0,3.1,0.9,2.8,2.8l-1.6,10.4c-0.4,2.3-1.1,2.8-3.4,2.8c-7,0-12.1,1.8-16.5,5.5V99.6z"/>
	<path class="st0" d="M842.6,165.3c0,2.3-0.6,3-3,3h-10.2c-2.1,0-3-0.7-3-3V99c0-2.3,0.9-3,3-3h5.3c2.7,0,4.4,0.4,5.4,1.7l2.6,4
		V165.3z M849.7,97.9c3.4-2.3,7-3.4,11.9-3.4c20.3,0,27.3,14.3,27.3,34.6v36.2c0,2.3-0.7,3-3,3h-10.2c-2.3,0-3-0.7-3-3v-34.5
		c0-13.9-4.8-21.9-14.9-21.9c-3.4,0-5.7,1-8.1,2.8V97.9z M889.7,102.2c4.7-4.7,10.6-7.7,18-7.7c15.6,0,27.3,8.4,27.3,32.7v38.2
		c0,2.3-0.7,3-3,3h-10.2c-2.3,0-3-0.7-3-3v-34.5c0-15.1-5.5-21.9-14.9-21.9c-4.1,0-7.5,1.7-9.5,4.3
		C893.7,108.7,892.1,105.6,889.7,102.2z"/>
	<path class="st0" d="M1034.1,170c-25.8-1.8-47.3-24.1-47.3-51.4c0-27.1,20.9-49.4,47.3-51.4v15.1c-18.6,2.4-30,19.5-30,36.4
		c0,17.6,12.2,34.2,30,36.4V170z M1041.4,155c17.9-2,30.1-18.6,30.1-36.4c0-17.9-12.2-34.4-30.1-36.4V67.2
		c26.7,2,47.4,24.6,47.4,51.4c0,27.3-21,49.4-47.4,51.4V155z"/>
	<path class="st0" d="M1150.9,114.2c-3.5-3.5-8-5.5-13.1-5.5c-11.8,0-20.3,10.2-20.3,23.4c0,12.8,8.5,23.3,20.3,23.3
		c5.8,0,9.8-2.4,13.1-5.5v14.6c-4.4,3.3-10.1,5.4-16.6,5.4c-19.5,0-32.8-17-32.8-37.8c0-20.2,13.3-37.6,32.8-37.6
		c7.2,0,11.6,1.7,16.6,4.5V114.2z M1158,102.3l2.7-3.8c1.7-1.6,3.7-2.4,5.5-2.4h5c2.3,0,3,0.7,3,3v95.3c0,2.3-0.7,3-3,3h-10.2
		c-2.4,0-3-0.7-3-3V102.3z"/>
	<path class="st0" d="M1194.9,109c-2.3,0-3-0.7-3-3v-7c0-2.3,0.7-3,3-3h5.3V82.1c0-2.3,0.6-3,3-3h10.1c2.3,0,3,0.7,3,3V96h21.9
		c2.3,0,3,0.7,3,3.1v6.8c0,2.3-0.7,3-3,3H1194.9z M1216.2,116.2v21.3c0,12.8,4.4,17.9,13.1,17.9c3.1,0,5.5-0.3,8.5-1.7
		c2.7-1.4,3.3-1.3,3.8,1.7l1.3,7.1c0.4,2.1,0.3,2.8-1.6,3.8c-5.7,3.5-11.9,3.5-13.8,3.5c-18.7,0-27.4-11.8-27.4-31.4v-22.3H1216.2z"
		/>
	<path class="st0" d="M1297.1,166.1c-5.5,2.8-9.7,3.8-16.5,3.8c-12.8,0-24.8-7.8-24.8-23.7c0-15.5,12.2-22.9,27.5-22.9
		c4.4,0,8,0.6,13.8,1.7v11.2c-4.3-1.1-6.8-1.4-9.9-1.4c-10.8,0-15.3,4.8-15.3,11.4c0,5.5,4.1,11.4,13.9,11.4c4.3,0,7.7-1.4,11.4-3.7
		V166.1z M1304.2,127c0-13.3-3.4-18.6-16.5-18.6c-8.1,0-15.6,1.1-20.9,2.1c-2.3,0.3-2.8-0.6-3.4-2.8l-1.7-6.8
		c-0.6-2.3-0.3-3.1,1.8-3.7c1.7-0.4,14.3-2.7,24.8-2.7c27.1,0,32,11.9,32,34.4v36.5c0,2.3-0.6,3-3,3h-8.7c-2,0-3.1-1-4.5-3V127z"/>
	<path class="st0" d="M1358.2,165.3c0,2.3-0.7,3-3,3H1345c-2.3,0-3-0.7-3-3V99c0-2.3,0.7-3,3-3h5.1c2.7,0,4.4,0.4,5.5,1.7l2.6,4
		V165.3z M1365.3,98.3c3.4-2.6,7.7-3.8,12.9-3.8c15.6,0,27.5,8.4,27.5,32.8v38.1c0,2.3-0.7,3-3,3h-10.2c-2.3,0-3-0.7-3-3v-34.5
		c0-15.1-5.5-21.9-15.5-21.9c-4.1,0-6.7,1.4-8.8,3.3V98.3z"/>
	<path class="st0" d="M1438,132.8c0,13.2,9.4,23.1,21.9,23.1c5,0,12.1-1.1,19.5-5.4c2.1-1,2.8-1.6,4.3,0.3l4.1,5.1
		c1.4,1.7,1.7,2.6,0.4,4c-6.5,6.4-18.3,9.9-28.7,9.9c-21.4,0-38.2-16.9-38.2-37.6c0-19.5,14.6-35.5,33.4-37.5v13.3
		c-10.2,2.1-16.6,11.2-16.6,23.7V132.8z M1445.4,126.9h32.1c-1-8.4-6-16.9-15.8-18.9V94.6c21.2,1.7,32.2,19.2,32.2,39.8
		c0,2.3-0.4,3.1-2.8,3.1h-45.7C1444.5,134.2,1444.5,130.1,1445.4,126.9z"/>
</g>
<g>
	<g>
		<path class="st1" d="M142,98.1c-3.5,5.2-6.5,10.2-9.9,14.9c-1.7,2.4-1.7,4.1,0,6.5c3.8,5.1,7.3,10.4,10.7,15.8
			c5.4,8.6,3.6,20.1-4,26.7c-7.7,6.7-18.6,7-26.6,0.7c-8.7-6.8-10.7-18.6-4.5-28c9.1-13.7,18.4-27.3,27.3-41.1
			c1.2-1.8,1.8-4.9,1.1-6.9c-2.6-7.4-5.7-14.5-8.8-21.7c-0.4-1-1.6-1.7-2.4-2.6c-0.7,0.8-1.7,1.5-2,2.4c-7,21.2-18.6,39.7-31.6,57.6
			c-12.3,17-9.6,40.4,5.6,54.3c15.4,14,38.9,14.6,54.7,1.4c16-13.4,19.7-36.3,8.4-53.9C154.4,115.6,148.3,107.3,142,98.1z"/>
	</g>
	<g>
		<path class="st1" d="M142,98.1c6.4,9.2,12.5,17.4,18,26c11.3,17.6,7.6,40.5-8.4,53.9c-15.8,13.2-39.3,12.6-54.7-1.4
			c-15.2-13.9-17.9-37.3-5.6-54.3c13-17.9,24.6-36.5,31.6-57.6c0.3-0.9,1.3-1.6,2-2.4c0.8,0.9,2,1.6,2.4,2.6
			c3.1,7.2,6.2,14.3,8.8,21.7c0.7,2,0.1,5.1-1.1,6.9c-9,13.8-18.3,27.4-27.3,41.1c-6.2,9.4-4.2,21.2,4.5,28c8,6.2,18.9,5.9,26.6-0.7
			c7.6-6.6,9.4-18.1,4-26.7c-3.4-5.4-7-10.6-10.7-15.8c-1.7-2.4-1.7-4.1,0-6.5C135.4,108.3,138.5,103.4,142,98.1z"/>
	</g>
</g>
</svg>
