<?xml version="1.0" encoding="utf-8"?>
<!-- Generator: Adobe Illustrator 26.3.1, SVG Export Plug-In . SVG Version: 6.00 Build 0)  -->
<svg version="1.1" id="Ebene_1" xmlns="http://www.w3.org/2000/svg" xmlns:xlink="http://www.w3.org/1999/xlink" x="0px" y="0px"
	 viewBox="0 0 1130.4 250" style="enable-background:new 0 0 1130.4 250;" xml:space="preserve">
<style type="text/css">
	.st0{fill:#00003E;}
	.st1{fill:#FFFFFF;}
</style>
<path class="st0" d="M164.4,250H0V85.6C0,38.4,38.4,0,85.6,0H250v164.4C250,211.6,211.6,250,164.4,250z"/>
<g>
	<path class="st1" d="M186,107.7v60c0,6.2-5,11.3-11.3,11.3H77.2C71,179,66,174,66,167.7v-60c0-6.2,5-11.3,11.3-11.3h26.3V79.6
		c0-3.1,2.5-5.6,5.6-5.6h33.8c3.1,0,5.6,2.5,5.6,5.6v16.9h26.3C180.9,96.5,186,101.5,186,107.7z M178.5,107.7c0-2.1-1.7-3.8-3.8-3.8
		H77.2c-2.1,0-3.8,1.7-3.8,3.8v18.8h105V107.7z M178.5,134H141v9.4c0,3.1-2.5,5.6-5.6,5.6h-18.8c-3.1,0-5.6-2.5-5.6-5.6V134H73.5
		v33.8c0,2.1,1.7,3.8,3.8,3.8h97.5c2.1,0,3.8-1.7,3.8-3.8V134z M111,96.5h30v-15h-30V96.5z M133.5,141.5V134h-15v7.5H133.5z"/>
</g>
<g>
	<path class="st0" d="M378.2,169.6c-12.8-1-22.3-4-31.9-10.5c-2.1-1.3-1.8-2.3-0.9-4.3l4.4-7.1c1.1-2,2-2.7,4.1-1.3
		c8.5,5.4,16.2,7.4,24.3,8.2V169.6z M379.9,82.6c-13.5,1.3-16.9,8.7-16.9,15.3c0,9.5,10.1,11.6,24.6,13.5
		c17.3,2.1,33.9,7.5,33.9,28.5c0,15.3-12.2,29.8-36.1,30v-15.1c11.5-0.4,19.5-4.4,19.5-14.2c0-10.2-9.5-12.9-25.4-15.1
		c-15.5-2-33.1-7.4-33.1-27.1c0-12.4,8.9-29.8,33.5-31.1V82.6z M387,67.4c11.8,0.9,20.9,4.5,31,10.8c2,1.1,1.7,2.3,0.7,4.3l-4.3,7
		c-1.1,2-2.1,2.8-4.1,1.4c-8.7-5.7-15.5-8-23.3-8.4V67.4z"/>
	<path class="st0" d="M450.9,132.8c0,13.2,9.4,23.1,21.9,23.1c5,0,12.1-1.1,19.5-5.4c2.1-1,2.8-1.6,4.3,0.3l4.1,5.1
		c1.4,1.7,1.7,2.6,0.4,4c-6.5,6.4-18.3,9.9-28.7,9.9c-21.4,0-38.2-16.9-38.2-37.6c0-19.5,14.6-35.5,33.4-37.5v13.3
		c-10.2,2.1-16.6,11.2-16.6,23.7V132.8z M458.3,126.9h32.1c-1-8.4-6-16.9-15.8-18.9V94.6c21.2,1.7,32.2,19.2,32.2,39.8
		c0,2.3-0.4,3.1-2.8,3.1h-45.7C457.5,134.2,457.5,130.1,458.3,126.9z"/>
	<path class="st0" d="M540.7,165.3c-0.1,2.3-0.7,3-3,3h-10.2c-2.3,0-3-0.7-3-3V99c0-2.3,0.7-3,3-3h5.1c4.4,0,5,0.9,8.1,4.4V165.3z
		 M547.8,99.6c3.8-2.7,8.9-5.1,18.6-5.1c2.8,0,3.1,0.9,2.8,2.8l-1.6,10.4c-0.4,2.3-1.1,2.8-3.4,2.8c-7,0-12.1,1.8-16.5,5.5V99.6z"/>
	<path class="st0" d="M615.4,167.6c-1.1,1.8-1.4,2.8-2.4,2.8h-0.6c-1.1,0-1.4-1-2.6-2.8L575.6,99c-0.6-1.4,0.1-3,1.8-3h11.4
		c2,0,2.7,0.7,3.8,3l28.7,56.9L615.4,167.6z M616.9,131.1L632.3,99c1.3-2.3,2-3,4-3h11.2c2.1,0,2.6,1.8,1.8,3l-24,48.8L616.9,131.1z
		"/>
	<path class="st0" d="M672.7,63.4c5.4,0,9.9,4.5,9.9,10.1c0,5.5-4.5,9.8-9.9,9.8c-5.5,0-9.9-4.3-9.9-9.8
		C662.8,67.9,667.2,63.4,672.7,63.4z M664.8,99c0-2.3,0.7-3,3-3H678c2.3,0,3,0.7,3,3v66.3c0,2.3-0.7,3-3,3h-10.2c-2.3,0-3-0.7-3-3
		V99z"/>
	<path class="st0" d="M735.5,109.3c-9.8,1.7-18,10.6-18,23c0,12.1,7.8,21.2,18,22.9v14.6c-19.7-1.8-34.1-18.5-34.1-37.5
		c0-19.2,14.3-35.8,34.1-37.6V109.3z M742.5,94.6c8.4,0.9,16,4,22.7,10.5c1.3,1.3,1,2-0.4,3.7l-5.3,5.7c-1.6,1.7-2.6,2.1-4.3,0.6
		c-4.3-4-8.7-5.3-12.8-6V94.6z M742.5,155.3c5.1-0.9,8.8-2.4,12.8-6c1.8-1.6,2.7-1.1,4.3,0.6l5.3,5.7c1.4,1.7,1.7,2.4,0.4,3.7
		c-6.8,6.5-13.9,9.5-22.7,10.5V155.3z"/>
	<path class="st0" d="M793.9,132.8c0,13.2,9.4,23.1,21.9,23.1c5,0,12.1-1.1,19.5-5.4c2.1-1,2.8-1.6,4.3,0.3l4.1,5.1
		c1.4,1.7,1.7,2.6,0.4,4c-6.5,6.4-18.3,9.9-28.7,9.9c-21.4,0-38.2-16.9-38.2-37.6c0-19.5,14.6-35.5,33.4-37.5v13.3
		c-10.2,2.1-16.6,11.2-16.6,23.7V132.8z M801.3,126.9h32.1c-1-8.4-6-16.9-15.8-18.9V94.6c21.2,1.7,32.2,19.2,32.2,39.8
		c0,2.3-0.4,3.1-2.8,3.1h-45.7C800.4,134.2,800.4,130.1,801.3,126.9z"/>
	<path class="st0" d="M884.9,165.3c0,2.4-0.7,3-3,3h-11.2c-2.3,0-3-0.7-3-3V71.9c0-2.3,0.7-3,3-3h11.2c2.3,0,3,0.7,3,3V165.3z
		 M892.1,128v-22l32.1-34.1c2.1-2.3,2.7-3,4.8-3h14.2c2.1,0,3.3,0.9,1.3,3L892.1,128z M907.5,122.3l38.9,43c2.3,2.6,0.6,3-1.3,3
		h-14.3c-2,0-2.7-0.7-4.5-3L897,133.7L907.5,122.3z"/>
	<path class="st0" d="M972.5,63.4c5.4,0,9.9,4.5,9.9,10.1c0,5.5-4.5,9.8-9.9,9.8c-5.5,0-9.9-4.3-9.9-9.8
		C962.6,67.9,967,63.4,972.5,63.4z M964.6,99c0-2.3,0.7-3,3-3h10.2c2.3,0,3,0.7,3,3v66.3c0,2.3-0.7,3-3,3h-10.2c-2.3,0-3-0.7-3-3V99
		z"/>
	<path class="st0" d="M1004.2,109c-2.3,0-3-0.7-3-3v-7c0-2.3,0.7-3,3-3h5.3V82.1c0-2.3,0.6-3,3-3h10.1c2.3,0,3,0.7,3,3V96h21.9
		c2.3,0,3,0.7,3,3.1v6.8c0,2.3-0.7,3-3,3H1004.2z M1025.5,116.2v21.3c0,12.8,4.4,17.9,13.1,17.9c3.1,0,5.5-0.3,8.5-1.7
		c2.7-1.4,3.3-1.3,3.8,1.7l1.3,7.1c0.4,2.1,0.3,2.8-1.6,3.8c-5.7,3.5-11.9,3.5-13.8,3.5c-18.7,0-27.4-11.8-27.4-31.4v-22.3H1025.5z"
		/>
	<path class="st0" d="M1089.5,169.6c-7.4-1.1-15.2-2.8-24.1-8.8c-2-1.4-1.7-2.3-0.7-4.3l3.1-5.4c1-2,1.7-3,4-1.3
		c4.8,3.3,10.2,6,17.8,7.1V169.6z M1096.6,157.2c8.7-0.7,12.8-4.5,12.8-9.7c0-4.7-6.2-7-17-8.4c-14.8-2-27.7-6.5-27.7-21.7
		c0-13.3,10.5-22.6,28.1-23v12.6c-9.2,0.6-12.8,4.1-12.8,9.5c0,5.5,6.1,7,17,8.5c14.8,1.8,27.7,6.5,27.7,21.6
		c0,13.3-10.9,22.4-28.1,23.1V157.2z M1099.9,94.9c6.2,1.1,12.2,2.6,20.9,7.5c2.3,1.4,1.7,2.4,0.9,4.4l-3.1,5.3c-1,2-1.8,2.8-4,1.4
		c-5.3-3.3-9.1-5.1-14.6-6V94.9z"/>
</g>
</svg>
