<?xml version="1.0" encoding="utf-8"?>
<!-- Generator: Adobe Illustrator 25.4.1, SVG Export Plug-In . SVG Version: 6.00 Build 0)  -->
<svg version="1.1" id="Ebene_1" xmlns="http://www.w3.org/2000/svg" xmlns:xlink="http://www.w3.org/1999/xlink" x="0px" y="0px"
	 viewBox="0 0 1237.4 250" style="enable-background:new 0 0 1237.4 250;" xml:space="preserve">
<style type="text/css">
	.st0{fill:#00003E;}
	.st1{fill:#FFFFFF;}
</style>
<path class="st0" d="M164.4,250H0V85.6C0,38.4,38.4,0,85.6,0H250v164.4C250,211.6,211.6,250,164.4,250z"/>
<g>
	<path class="st1" d="M182.7,85.7l-37.9,38v51.8c0,9.4-10.7,14.1-18,9l-15-11c-2.8-2.5-4.5-5.8-4.5-9.4v-40.3l-37.9-38
		c-7.1-7.1-2-19.2,8-19.2h97.5C184.7,66.5,189.7,78.6,182.7,85.7z M174.7,77.7H77.2l41.3,41.3v45l15,11.3V119L174.7,77.7z"/>
</g>
<g>
	<path class="st0" d="M398.8,155.5l-6.2,12.1c-1,1.8-1.4,2.8-2.6,2.8h-0.4c-1,0-1.3-1-2.4-2.8l-48-95.7c-0.7-1.4,0.1-3,1.8-3h13.2
		c2,0,2.7,0.7,4,3L398.8,155.5z M394.1,129.3l27.4-57.4c1.1-2.3,2-3,4-3h13.1c2.1,0,2.6,1.8,2,3L403,147.3L394.1,129.3z"/>
	<path class="st0" d="M460.3,63.4c5.4,0,9.9,4.5,9.9,10.1c0,5.5-4.5,9.8-9.9,9.8c-5.5,0-9.9-4.3-9.9-9.8
		C450.4,67.9,454.8,63.4,460.3,63.4z M452.4,99c0-2.3,0.7-3,3-3h10.2c2.3,0,3,0.7,3,3v66.3c0,2.3-0.7,3-3,3h-10.2c-2.3,0-3-0.7-3-3
		V99z"/>
	<path class="st0" d="M514.6,169.6c-7.4-1.1-15.2-2.8-24.1-8.8c-2-1.4-1.7-2.3-0.7-4.3l3.1-5.4c1-2,1.7-3,4-1.3
		c4.8,3.3,10.2,6,17.7,7.1V169.6z M521.7,157.2c8.7-0.7,12.8-4.5,12.8-9.7c0-4.7-6.2-7-17-8.4c-14.8-2-27.7-6.5-27.7-21.7
		c0-13.3,10.5-22.6,28.1-23v12.6c-9.2,0.6-12.8,4.1-12.8,9.5c0,5.5,6.1,7,17,8.5c14.8,1.8,27.7,6.5,27.7,21.6
		c0,13.3-10.9,22.4-28.1,23.1V157.2z M524.9,94.9c6.2,1.1,12.2,2.6,20.9,7.5c2.3,1.4,1.7,2.4,0.9,4.4l-3.1,5.3c-1,2-1.8,2.8-4,1.4
		c-5.3-3.3-9.1-5.1-14.6-6V94.9z"/>
	<path class="st0" d="M605.3,166.1c-3.4,2.6-7.7,3.8-12.9,3.8c-15.6,0-27.5-8.4-27.5-32.8V99c0-2.3,0.7-3,3-3H578c2.3,0,3,0.7,3,3
		v34.6c0,14.9,5.5,21.7,15.5,21.7c4.1,0,6.7-1.4,8.8-3.3V166.1z M612.4,99c0-2.3,0.7-3,3-3h10.2c2.3,0,3,0.7,3,3v66.3
		c0,2.3-0.7,3-3,3h-5.1c-2.7,0-4.4-0.4-5.5-1.7l-2.6-4V99z"/>
	<path class="st0" d="M689.9,166.1c-5.5,2.8-9.7,3.8-16.5,3.8c-12.8,0-24.8-7.8-24.8-23.7c0-15.5,12.2-22.9,27.5-22.9
		c4.4,0,8,0.6,13.8,1.7v11.2c-4.3-1.1-6.8-1.4-9.9-1.4c-10.8,0-15.3,4.8-15.3,11.4c0,5.5,4.1,11.4,13.9,11.4c4.3,0,7.7-1.4,11.4-3.7
		V166.1z M697,127c0-13.3-3.4-18.6-16.5-18.6c-8.1,0-15.6,1.1-20.9,2.1c-2.3,0.3-2.8-0.6-3.4-2.8l-1.7-6.8c-0.6-2.3-0.3-3.1,1.8-3.7
		c1.7-0.4,14.3-2.7,24.8-2.7c27.1,0,32,11.9,32,34.4v36.5c0,2.3-0.6,3-3,3h-8.7c-2,0-3.1-1-4.5-3V127z"/>
	<path class="st0" d="M735.1,66.5c0-2.3,0.7-3,3-3h10.2c2.4,0,3,0.7,3,3v98.8c0,2.3-0.7,3-3,3h-10.2c-2.3,0-3-0.7-3-3V66.5z"/>
	<path class="st0" d="M853.6,170c-26.3-2.1-47.3-24.3-47.3-51.4c0-26.8,20.6-49.1,47.3-51.5v15.2c-18,2.4-30,18.9-30,36.4
		c0,17.2,11.9,34.1,30,36.4V170z M860.9,155c18-2.1,30.1-18.6,30.1-36.4c0-17.6-11.9-34.1-30.1-36.4V67.1
		c26.6,2.3,47.4,24.4,47.4,51.5c0,17.7-8.7,31.5-20.4,40.9l12.2,16.3c1.4,2,1.1,3-0.7,4.3l-8.9,6.4c-1.8,1.3-2.7,1-4.1-1L873.8,167
		c-4.8,1.6-7.4,2.6-12.9,3V155z"/>
	<path class="st0" d="M964.7,166.1c-3.4,2.6-7.7,3.8-12.9,3.8c-15.6,0-27.5-8.4-27.5-32.8V99c0-2.3,0.7-3,3-3h10.2c2.3,0,3,0.7,3,3
		v34.6c0,14.9,5.5,21.7,15.5,21.7c4.1,0,6.7-1.4,8.8-3.3V166.1z M971.8,99c0-2.3,0.7-3,3-3H985c2.3,0,3,0.7,3,3v66.3
		c0,2.3-0.7,3-3,3h-5.1c-2.7,0-4.4-0.4-5.5-1.7l-2.6-4V99z"/>
	<path class="st0" d="M1023.2,132.8c0,13.2,9.4,23.1,21.9,23.1c5,0,12.1-1.1,19.5-5.4c2.1-1,2.8-1.6,4.3,0.3l4.1,5.1
		c1.4,1.7,1.7,2.6,0.4,4c-6.5,6.4-18.3,9.9-28.7,9.9c-21.4,0-38.2-16.9-38.2-37.6c0-19.5,14.6-35.5,33.4-37.5v13.3
		c-10.2,2.1-16.6,11.2-16.6,23.7V132.8z M1030.6,126.9h32.1c-1-8.4-6-16.9-15.8-18.9V94.6c21.2,1.7,32.2,19.2,32.2,39.8
		c0,2.3-0.4,3.1-2.8,3.1h-45.7C1029.7,134.2,1029.7,130.1,1030.6,126.9z"/>
	<path class="st0" d="M1112.9,165.3c-0.1,2.3-0.7,3-3,3h-10.2c-2.3,0-3-0.7-3-3V99c0-2.3,0.7-3,3-3h5.1c4.4,0,5,0.9,8.1,4.4V165.3z
		 M1120,99.6c3.8-2.7,8.9-5.1,18.6-5.1c2.8,0,3.1,0.9,2.8,2.8l-1.6,10.4c-0.4,2.3-1.1,2.8-3.4,2.8c-7,0-12.1,1.8-16.5,5.5V99.6z"/>
	<path class="st0" d="M1179,194.3c-1.1,2.4-2,3-3.8,3h-11.6c-2.1,0-2.7-0.7-1.6-3l14.6-32.5L1148.2,99c-1-2.3-0.6-3,1.6-3h11.6
		c2,0,2.7,0.7,4,3l28.3,62.9L1179,194.3z M1189.3,134.7l15.5-35.6c1.3-2.3,2-3,4-3h11.6c2.1,0,2.6,0.7,1.6,3l-24.4,54.1
		L1189.3,134.7z"/>
</g>
</svg>
