<?xml version="1.0" encoding="utf-8"?>
<!-- Generator: Adobe Illustrator 26.0.1, SVG Export Plug-In . SVG Version: 6.00 Build 0)  -->
<svg version="1.1" id="Ebene_1" xmlns="http://www.w3.org/2000/svg" xmlns:xlink="http://www.w3.org/1999/xlink" x="0px" y="0px"
	 viewBox="0 0 1226.8 250" style="enable-background:new 0 0 1226.8 250;" xml:space="preserve">
<style type="text/css">
	.st0{fill:#FFFFFF;}
	.st1{fill:#00003E;}
</style>
<path class="st0" d="M164.4,250H0V85.6C0,38.3,38.3,0,85.6,0H250v164.4C250,211.7,211.7,250,164.4,250z"/>
<path class="st1" d="M193.5,141.5c0,11.9-3.1,23.6-9.2,33.9c-1.4,2.2-3.8,3.6-6.4,3.6H74.1c-2.6,0-5.1-1.3-6.4-3.6
	c-18.8-32.2-7.8-73.6,24.4-92.3s73.6-7.8,92.3,24.4C190.3,117.8,193.5,129.6,193.5,141.5L193.5,141.5z M182.2,141.5
	c0-31.1-25.2-56.3-56.2-56.3s-56.3,25.2-56.3,56.2c0,9.2,2.2,18.2,6.5,26.3h99.5C180,159.7,182.2,150.6,182.2,141.5z M141,149
	c0,2.6-0.7,5.2-2.1,7.5h-25.9c-2.8-4.6-2.8-10.4,0-15l-17.8-22.8c-1.9-2.5-1.5-6,1-7.9s6-1.5,7.9,1l0,0l17.8,22.8
	c1.3-0.4,2.7-0.6,4.1-0.6C134.3,134,141,140.7,141,149L141,149z"/>
<path class="st0" d="M373.4,82.3c-8.2,1.3-13.6,4.4-19.6,10.4c-1.9,1.8-2.7,1.4-4.3-0.3l-6.1-6.5c-1.4-1.7-1.8-2.6-0.3-4.3
	c8.7-8.2,17.6-13.1,30.2-14.3V82.3z M380.5,67.1c27.8,2,38.5,26.7,23,45.4l-44.2,55.8h-15.5c-1,0-1.3-0.3-1.3-1.3v-1.7
	c0-1,0.3-1.3,1.3-2.6l45.9-56.9c8.7-10.7,3-22.2-9.2-23.6L380.5,67.1z M380.1,153.7h28.7c2.3,0,3,0.6,3,3v8.7c0,2.3-0.7,3-3,3h-40.3
	L380.1,153.7z"/>
<path class="st0" d="M448.8,169.6c-7.4-1.1-15.2-2.8-24.1-8.8c-2-1.4-1.7-2.3-0.7-4.3l3.1-5.4c1-2,1.7-3,4-1.3
	c5.3,3.7,11.4,6.2,17.8,7.1L448.8,169.6z M455.9,157.2c8.7-0.7,12.8-4.6,12.8-9.7c0-4.7-6.2-7-17-8.4c-14.8-2-27.7-6.5-27.7-21.7
	c0-13.3,10.5-22.6,28.1-23v12.6c-9.2,0.6-12.8,4.1-12.8,9.5c0,5.5,6.1,7,17,8.5c14.8,1.8,27.7,6.5,27.7,21.6
	c0,13.4-10.9,22.4-28.1,23.1L455.9,157.2z M459.2,94.9c7.4,1.2,14.5,3.7,20.9,7.5c2.3,1.4,1.7,2.4,0.9,4.4l-3.1,5.2
	c-1,2-1.8,2.8-4,1.4c-5.3-3.3-9.1-5.1-14.6-6L459.2,94.9z"/>
<path class="st0" d="M561.7,165.3c1.6,2.3,0.9,3-1.4,3h-12.6c-2,0-2.8-0.6-4.4-3L494.5,99c-1.4-2.3-0.7-3,1.4-3h12.8
	c2.1,0,3,0.6,4.4,3L561.7,165.3z M523.2,150.3l-10.1,15.1c-1.4,2.4-2.3,3-4.4,3H496c-2.1,0-2.8-0.7-1.4-3l19.3-27.7L523.2,150.3z
	 M533.2,114.1l10.1-15c1.6-2.6,2.4-3,4.4-3h12.6c2.3,0,3,0.7,1.4,3l-19.2,27.8L533.2,114.1z"/>
<path class="st0" d="M604.4,109.2c-9.8,1.7-18,10.7-18,23c0,12.1,7.8,21.2,18,22.9v14.6c-20.7-2-35.9-20.5-33.9-41.2
	c1.8-17.9,15.9-32.1,33.9-33.9V109.2z M611.4,94.6c8.6,0.7,16.6,4.5,22.7,10.5c1.3,1.3,1,2-0.4,3.7l-5.3,5.7
	c-1.6,1.7-2.5,2.1-4.3,0.6c-3.5-3.3-8-5.4-12.8-6L611.4,94.6z M611.4,155.3c4.8-0.6,9.2-2.7,12.8-6c1.8-1.6,2.7-1.1,4.3,0.6l5.3,5.7
	c1.4,1.7,1.7,2.4,0.4,3.7c-6.1,6.1-14.1,9.8-22.7,10.5L611.4,155.3z"/>
<path class="st0" d="M688.5,71.9c0-2.3,0.7-3,3-3h11.2c2.4,0,3,0.7,3,3v93.4c0,2.3-0.7,3-3,3h-11.2c-2.3,0-3-0.7-3-3L688.5,71.9z"/>
<path class="st0" d="M746.9,165.3c0,2.3-0.7,3-3,3h-10.2c-2.3,0-3-0.7-3-3V99c0-2.3,0.7-3,3-3h5.1c2.7,0,4.4,0.4,5.5,1.7l2.6,4
	L746.9,165.3z M754,98.3c3.4-2.6,7.7-3.8,12.9-3.8c15.6,0,27.5,8.4,27.5,32.8v38.1c0,2.3-0.7,3-3,3h-10.2c-2.3,0-3-0.7-3-3v-34.5
	c0-15.1-5.5-21.9-15.5-21.9c-3.2-0.1-6.4,1.1-8.8,3.3L754,98.3z"/>
<path class="st0" d="M835.5,169.6c-7.4-1.1-15.2-2.8-24.1-8.8c-2-1.4-1.7-2.3-0.7-4.3l3.1-5.4c1-2,1.7-3,4-1.3
	c5.3,3.7,11.4,6.2,17.8,7.1L835.5,169.6z M842.6,157.2c8.7-0.7,12.8-4.6,12.8-9.7c0-4.7-6.2-7-17-8.4c-14.8-2-27.7-6.5-27.7-21.7
	c0-13.3,10.5-22.6,28.1-23v12.6c-9.2,0.6-12.8,4.1-12.8,9.5c0,5.5,6.1,7,17,8.5c14.8,1.8,27.7,6.5,27.7,21.6
	c0,13.4-10.9,22.4-28.1,23.1V157.2z M845.8,94.9c7.4,1.1,14.5,3.7,20.9,7.5c2.3,1.4,1.7,2.4,0.8,4.4l-3.1,5.2c-1,2-1.8,2.8-4,1.4
	c-5.2-3.3-9.1-5.1-14.6-6L845.8,94.9z"/>
<path class="st0" d="M898.9,63.4c5.5,0.1,9.9,4.6,9.9,10.1c0,5.5-4.5,9.9-9.9,9.9S889,79,889,73.5C889,67.9,893.4,63.4,898.9,63.4
	C898.9,63.4,898.9,63.4,898.9,63.4z M891,99c0-2.3,0.7-3,3-3h10.2c2.3,0,3,0.7,3,3v66.3c0,2.3-0.7,3-3,3H894c-2.3,0-3-0.7-3-3V99z"
	/>
<path class="st0" d="M977,114.2c-3.4-3.6-8.1-5.6-13-5.5c-11.8,0-20.3,10.2-20.3,23.4c0,12.8,8.5,23.3,20.3,23.3c4.9,0,9.6-2,13-5.5
	v14.6c-4.8,3.6-10.6,5.5-16.6,5.4c-19.5,0-32.8-17-32.8-37.8c0-20.2,13.3-37.6,32.8-37.6c5.9-0.1,11.6,1.4,16.6,4.5V114.2z
	 M984.1,99.7c0.9-2.2,3-3.6,5.3-3.7h8c2.3,0,3,0.7,3,3v63.3c0,28.5-12.5,41-34.7,41c-9.8,0.1-19.6-1.7-28.8-5.2
	c-2-0.9-2.3-1.3-1.7-3.6l2.1-8.5c0.6-2.4,1-2.7,3.1-1.8c4.5,1.8,12.5,5,22.6,5c13.6,0,21-7.8,21-24.9L984.1,99.7z"/>
<path class="st0" d="M1040.2,165.3c0,2.3-0.6,3-3,3H1027c-2.1,0-3-0.7-3-3V66.5c0-2.3,0.8-3,3-3h10.2c2.3,0,3,0.7,3,3L1040.2,165.3z
	 M1047.3,98.3c3.8-2.6,8.3-3.9,12.9-3.8c15.6,0,27.6,8.4,27.6,32.8v38.1c0,2.3-0.6,3-3,3h-10.2c-2.1,0-3-0.7-3-3v-34.5
	c0-15.1-5.4-21.9-15.5-21.9c-3.2,0-6.3,1.2-8.8,3.3L1047.3,98.3z"/>
<path class="st0" d="M1106.3,109c-2.3,0-3-0.7-3-3v-7c0-2.3,0.7-3,3-3h5.3V82.1c0-2.3,0.6-3,3-3h10.1c2.3,0,3,0.7,3,3V96h21.9
	c2.3,0,3,0.7,3,3.1v6.9c0,2.3-0.7,3-3,3H1106.3z M1127.6,116.2v21.3c0,12.8,4.4,17.9,13.1,17.9c2.9,0.1,5.9-0.4,8.5-1.7
	c2.7-1.4,3.3-1.3,3.8,1.7l1.3,7.1c0.4,2.1,0.3,2.8-1.6,3.8c-4.2,2.4-8.9,3.7-13.8,3.6c-18.7,0-27.4-11.8-27.4-31.4v-22.3
	L1127.6,116.2z"/>
<path class="st0" d="M1191.6,169.6c-7.4-1.1-15.2-2.8-24.1-8.8c-2-1.4-1.7-2.3-0.7-4.3l3.1-5.4c1-2,1.7-3,4-1.3
	c5.3,3.7,11.4,6.2,17.8,7.1L1191.6,169.6z M1198.7,157.2c8.7-0.7,12.8-4.6,12.8-9.7c0-4.7-6.2-7-17-8.4c-14.8-2-27.7-6.5-27.7-21.7
	c0-13.3,10.5-22.6,28.1-23v12.6c-9.2,0.6-12.8,4.1-12.8,9.5c0,5.5,6.1,7,17,8.5c14.8,1.8,27.7,6.5,27.7,21.6
	c0,13.4-10.9,22.4-28.1,23.1V157.2z M1202,94.9c7.4,1.1,14.5,3.7,20.9,7.5c2.3,1.4,1.7,2.4,0.8,4.4l-3.1,5.2c-1,2-1.8,2.8-4,1.4
	c-5.2-3.3-9.1-5.1-14.6-6L1202,94.9z"/>
</svg>
