<?xml version="1.0" encoding="utf-8"?>
<!-- Generator: Adobe Illustrator 25.4.1, SVG Export Plug-In . SVG Version: 6.00 Build 0)  -->
<svg version="1.1" id="Ebene_1" xmlns="http://www.w3.org/2000/svg" xmlns:xlink="http://www.w3.org/1999/xlink" x="0px" y="0px"
	 viewBox="0 0 986.3 250" style="enable-background:new 0 0 986.3 250;" xml:space="preserve">
<style type="text/css">
	.st0{fill:#00003E;}
	.st1{fill:#FFFFFF;}
</style>
<path class="st0" d="M164.4,250H0V85.6C0,38.4,38.4,0,85.6,0H250v164.4C250,211.6,211.6,250,164.4,250z"/>
<g>
	<path class="st1" d="M77.2,134h56.3v22.5H65.9c-8.3,0-15-6.8-15-15v-3.8c0-2.1,1.7-3.8,3.8-3.8H66V74c0-4.1,3.4-7.5,7.5-7.5h90
		c4.1,0,7.5,3.4,7.5,7.5v15h-11.3V77.7H77.2V134z M201,104.9v73.1c0,4.7-3.8,8.4-8.4,8.4h-43.1c-4.7,0-8.4-3.8-8.4-8.4v-73.1
		c0-4.7,3.8-8.4,8.4-8.4h43.1C197.2,96.5,201,100.3,201,104.9z M189.7,107.7h-37.5v67.5h37.5V107.7z"/>
</g>
<g>
	<path class="st0" d="M367.6,165.3c0,2.3-0.7,3-3,3h-11.2c-2.3,0-3-0.7-3-3V71.9c0-2.3,0.7-3,3-3h11.2c2.3,0,3,0.7,3,3V165.3z
		 M432.8,111.4v54c0,2.3-0.7,3-3,3h-11.2c-2.3,0-3-0.7-3-3v-39h-40.8v-14.9H432.8z M415.6,104.1V71.9c0-2.3,0.7-3,3-3h11.2
		c2.3,0,3,0.7,3,3v32.2H415.6z"/>
	<path class="st0" d="M468.3,132.8c0,13.2,9.4,23.1,21.9,23.1c5,0,12.1-1.1,19.5-5.4c2.1-1,2.8-1.6,4.3,0.3l4.1,5.1
		c1.4,1.7,1.7,2.6,0.4,4c-6.5,6.4-18.3,9.9-28.7,9.9c-21.4,0-38.2-16.9-38.2-37.6c0-19.5,14.6-35.5,33.4-37.5v13.3
		c-10.2,2.1-16.6,11.2-16.6,23.7V132.8z M475.7,126.9h32.1c-1-8.4-6-16.9-15.8-18.9V94.6c21.2,1.7,32.2,19.2,32.2,39.8
		c0,2.3-0.4,3.1-2.8,3.1h-45.7C474.8,134.2,474.8,130.1,475.7,126.9z"/>
	<path class="st0" d="M578.2,166.1c-5.5,2.8-9.7,3.8-16.5,3.8c-12.8,0-24.8-7.8-24.8-23.7c0-15.5,12.2-22.9,27.5-22.9
		c4.4,0,8,0.6,13.8,1.7v11.2c-4.3-1.1-6.8-1.4-9.9-1.4c-10.8,0-15.3,4.8-15.3,11.4c0,5.5,4.1,11.4,13.9,11.4c4.3,0,7.7-1.4,11.4-3.7
		V166.1z M585.3,127c0-13.3-3.4-18.6-16.5-18.6c-8.1,0-15.6,1.1-20.9,2.1c-2.3,0.3-2.8-0.6-3.4-2.8l-1.7-6.8
		c-0.6-2.3-0.3-3.1,1.8-3.7c1.7-0.4,14.3-2.7,24.8-2.7c27.1,0,31.9,11.9,31.9,34.4v36.5c0,2.3-0.6,3-3,3h-8.7c-2,0-3.1-1-4.5-3V127z
		"/>
	<path class="st0" d="M666.2,165.3c-5,2.8-9.4,4.5-16.6,4.5c-19.5,0-32.8-17.3-32.8-37.6c0-20.7,13.3-37.8,32.8-37.8
		c6.5,0,12.2,2.1,16.6,5.4v14.6c-3.3-3.1-7.2-5.5-13.1-5.5c-11.8,0-20.3,10.5-20.3,23.3c0,13.2,8.5,23.4,20.3,23.4
		c5.1,0,9.5-2,13.1-5.5V165.3z M673.3,66.5c0-2.3,0.6-3,3-3h10.2c2.3,0,3,0.7,3,3v98.8c0,2.3-0.7,3-3,3h-5c-1.8,0-3.8-0.7-5.5-2.4
		l-2.7-3.8V66.5z"/>
	<path class="st0" d="M713.8,66.5c0-2.3,0.7-3,3-3H727c2.4,0,3,0.7,3,3v98.8c0,2.3-0.7,3-3,3h-10.2c-2.3,0-3-0.7-3-3V66.5z"/>
	<path class="st0" d="M765.5,132.8c0,13.2,9.4,23.1,21.9,23.1c5,0,12.1-1.1,19.5-5.4c2.1-1,2.8-1.6,4.3,0.3l4.1,5.1
		c1.4,1.7,1.7,2.6,0.4,4c-6.5,6.4-18.3,9.9-28.7,9.9c-21.4,0-38.2-16.9-38.2-37.6c0-19.5,14.6-35.5,33.4-37.5v13.3
		c-10.2,2.1-16.6,11.2-16.6,23.7V132.8z M772.9,126.9h32.1c-1-8.4-6-16.9-15.8-18.9V94.6c21.2,1.7,32.2,19.2,32.2,39.8
		c0,2.3-0.4,3.1-2.8,3.1h-45.7C772,134.2,772,130.1,772.9,126.9z"/>
	<path class="st0" d="M858.3,169.6c-7.4-1.1-15.2-2.8-24.1-8.8c-2-1.4-1.7-2.3-0.7-4.3l3.1-5.4c1-2,1.7-3,4-1.3
		c4.8,3.3,10.2,6,17.8,7.1V169.6z M865.4,157.2c8.7-0.7,12.8-4.5,12.8-9.7c0-4.7-6.2-7-17-8.4c-14.8-2-27.7-6.5-27.7-21.7
		c0-13.3,10.5-22.6,28.1-23v12.6c-9.2,0.6-12.8,4.1-12.8,9.5c0,5.5,6.1,7,17,8.5c14.8,1.8,27.7,6.5,27.7,21.6
		c0,13.3-10.9,22.4-28.1,23.1V157.2z M868.7,94.9c6.2,1.1,12.2,2.6,20.9,7.5c2.3,1.4,1.7,2.4,0.9,4.4l-3.1,5.3c-1,2-1.8,2.8-4,1.4
		c-5.3-3.3-9.1-5.1-14.6-6V94.9z"/>
	<path class="st0" d="M930.9,169.6c-7.4-1.1-15.2-2.8-24.1-8.8c-2-1.4-1.7-2.3-0.7-4.3l3.1-5.4c1-2,1.7-3,4-1.3
		c4.8,3.3,10.2,6,17.8,7.1V169.6z M938,157.2c8.7-0.7,12.8-4.5,12.8-9.7c0-4.7-6.2-7-17-8.4c-14.8-2-27.7-6.5-27.7-21.7
		c0-13.3,10.5-22.6,28.1-23v12.6c-9.2,0.6-12.8,4.1-12.8,9.5c0,5.5,6.1,7,17,8.5c14.8,1.8,27.7,6.5,27.7,21.6
		c0,13.3-10.9,22.4-28.1,23.1V157.2z M941.3,94.9c6.2,1.1,12.2,2.6,20.9,7.5c2.3,1.4,1.7,2.4,0.9,4.4l-3.1,5.3c-1,2-1.8,2.8-4,1.4
		c-5.3-3.3-9.1-5.1-14.6-6V94.9z"/>
</g>
</svg>
