<?xml version="1.0" encoding="utf-8"?>
<!-- Generator: Adobe Illustrator 26.2.1, SVG Export Plug-In . SVG Version: 6.00 Build 0)  -->
<svg version="1.1" id="Ebene_1" xmlns="http://www.w3.org/2000/svg" xmlns:xlink="http://www.w3.org/1999/xlink" x="0px" y="0px"
	 viewBox="0 0 1111.9 250" style="enable-background:new 0 0 1111.9 250;" xml:space="preserve">
<style type="text/css">
	.st0{fill:#FFFFFF;}
</style>
<g>
	<path class="st0" d="M367.3,168.7h-14.2c-2.3,0-3-0.7-3-3V72.3c0-2.3,0.7-3,3-3h11.2c2.3,0,3,0.7,3,3V168.7z M374.6,154h36.8
		c2.3,0,3,0.6,3,3v8.7c0,2.3-0.7,3-3,3h-36.8V154z"/>
	<path class="st0" d="M441,63.7c5.4,0,9.9,4.5,9.9,10.1c0,5.5-4.5,9.8-9.9,9.8c-5.5,0-9.9-4.3-9.9-9.8S435.5,63.7,441,63.7z
		 M433.1,99.4c0-2.3,0.7-3,3-3h10.2c2.3,0,3,0.7,3,3v66.3c0,2.3-0.7,3-3,3H436c-2.3,0-3-0.7-3-3V99.4H433.1z"/>
	<path class="st0" d="M519.1,114.6c-3.3-3.3-7.5-5.5-13.1-5.5c-11.8,0-20.3,10.2-20.3,23.4c0,12.8,8.5,23.3,20.3,23.3
		c4.8,0,9.1-1.7,13.1-5.5v14.6c-4.1,3-9.2,5.4-16.6,5.4c-19.5,0-32.8-17-32.8-37.8c0-20.2,13.3-37.6,32.8-37.6
		c7.7,0,12.1,2,16.6,4.5V114.6z M526.2,100.1c1-2.1,3-3.7,5.3-3.7h8c2.3,0,3,0.7,3,3v63.3c0,28.5-12.5,41-34.6,41
		c-15.8,0-26.4-4.4-28.7-5.3c-2-0.9-2.3-1.3-1.7-3.5l2.1-8.5c0.6-2.4,1-2.7,3.1-1.8c4.5,1.8,12.5,5,22.6,5c13.6,0,21-7.8,21-24.8
		L526.2,100.1L526.2,100.1z"/>
	<path class="st0" d="M582.3,165.7c0,2.3-0.6,3-3,3h-10.2c-2.1,0-3-0.7-3-3V66.9c0-2.3,0.9-3,3-3h10.2c2.3,0,3,0.7,3,3V165.7z
		 M589.4,98.7c3.3-2.3,7.5-3.8,12.9-3.8c15.6,0,27.5,8.4,27.5,32.8v38.1c0,2.3-0.6,3-3,3h-10.2c-2.1,0-3-0.7-3-3v-34.5
		c0-15.1-5.4-21.9-15.5-21.9c-4,0-6.5,1.6-8.8,3.3L589.4,98.7L589.4,98.7z"/>
	<path class="st0" d="M648.3,109.3c-2.3,0-3-0.7-3-3v-7c0-2.3,0.7-3,3-3h5.3V82.5c0-2.3,0.6-3,3-3h10.1c2.3,0,3,0.7,3,3v13.9h21.9
		c2.3,0,3,0.7,3,3.1v6.8c0,2.3-0.7,3-3,3H648.3z M669.6,116.6v21.3c0,12.8,4.4,17.9,13.1,17.9c3.1,0,5.5-0.3,8.5-1.7
		c2.7-1.4,3.3-1.3,3.8,1.7l1.3,7.1c0.4,2.1,0.3,2.8-1.6,3.8c-5.7,3.5-11.9,3.5-13.8,3.5c-18.7,0-27.4-11.8-27.4-31.4v-22.3
		L669.6,116.6L669.6,116.6z"/>
	<path class="st0" d="M733.7,170c-7.4-1.1-15.2-2.8-24.1-8.8c-2-1.4-1.7-2.3-0.7-4.3l3.1-5.4c1-2,1.7-3,4-1.3
		c4.8,3.3,10.2,6,17.8,7.1L733.7,170L733.7,170z M740.8,157.6c8.7-0.7,12.8-4.5,12.8-9.7c0-4.7-6.2-7-17-8.4
		c-14.8-2-27.7-6.5-27.7-21.7c0-13.3,10.5-22.6,28.1-23v12.7c-9.2,0.6-12.8,4.1-12.8,9.5c0,5.5,6.1,7,17,8.5
		c14.8,1.8,27.7,6.5,27.7,21.6c0,13.3-10.9,22.4-28.1,23.1V157.6z M744,95.3c6.2,1.1,12.2,2.6,20.9,7.5c2.3,1.4,1.7,2.4,0.9,4.4
		l-3.1,5.3c-1,2-1.8,2.8-4,1.4c-5.3-3.3-9.1-5.1-14.6-6V95.3H744z"/>
	<path class="st0" d="M802.4,194.7c0,2.3-0.7,3-3,3h-10.2c-2.3,0-3-0.7-3-3V99.4c0-2.3,0.7-3,3-3h5c1.7,0,3.7,0.9,5.4,2.4l2.8,3.8
		V194.7z M809.5,99.4c4.8-2.8,9.2-4.5,16.6-4.5c19.3,0,32.8,17.5,32.8,37.6c0,20.7-13.5,37.8-32.8,37.8c-6.7,0-12.2-2.1-16.6-5.4
		v-14.6c3.3,3.1,7.1,5.5,13.1,5.5c11.8,0,20.2-10.5,20.2-23.3c0-13.2-8.4-23.4-20.2-23.4c-5.1,0-9.5,2-13.1,5.5V99.4z"/>
	<path class="st0" d="M887.9,133.2c0,13.2,9.4,23.1,21.9,23.1c5,0,12.1-1.1,19.5-5.4c2.1-1,2.8-1.6,4.3,0.3l4.1,5.1
		c1.4,1.7,1.7,2.6,0.4,4c-6.5,6.4-18.3,9.9-28.7,9.9c-21.4,0-38.2-16.9-38.2-37.6c0-19.5,14.6-35.5,33.4-37.5v13.4
		c-10.2,2.1-16.6,11.2-16.6,23.7v1H887.9z M895.3,127.2h32.1c-1-8.4-6-16.9-15.8-18.9V95c21.2,1.7,32.2,19.2,32.2,39.8
		c0,2.3-0.4,3.1-2.8,3.1h-45.7C894.4,134.6,894.4,130.5,895.3,127.2z"/>
	<path class="st0" d="M971.9,133.2c0,13.2,9.4,23.1,21.9,23.1c5,0,12.1-1.1,19.5-5.4c2.1-1,2.8-1.6,4.3,0.3l4.1,5.1
		c1.4,1.7,1.7,2.6,0.4,4c-6.5,6.4-18.3,9.9-28.7,9.9c-21.4,0-38.2-16.9-38.2-37.6c0-19.5,14.6-35.5,33.4-37.5v13.4
		c-10.2,2.1-16.6,11.2-16.6,23.7v1H971.9z M979.3,127.2h32.1c-1-8.4-6-16.9-15.8-18.9V95c21.2,1.7,32.2,19.2,32.2,39.8
		c0,2.3-0.4,3.1-2.8,3.1h-45.7C978.5,134.6,978.5,130.5,979.3,127.2z"/>
	<path class="st0" d="M1088.7,165.7c-5,2.8-9.4,4.5-16.6,4.5c-19.5,0-32.8-17.3-32.8-37.6c0-20.7,13.3-37.8,32.8-37.8
		c6.5,0,12.2,2.1,16.6,5.4v14.6c-3.3-3.1-7.2-5.5-13.1-5.5c-11.8,0-20.3,10.5-20.3,23.3c0,13.2,8.5,23.4,20.3,23.4
		c5.1,0,9.5-2,13.1-5.5V165.7z M1095.8,66.9c0-2.3,0.6-3,3-3h10.2c2.3,0,3,0.7,3,3v98.8c0,2.3-0.7,3-3,3h-5c-1.8,0-3.8-0.7-5.5-2.4
		l-2.7-3.8V66.9z"/>
</g>
<g id="Ebene_2_00000021090667884771219830000002662155293943872185_">
</g>
<g id="Ebene_3">
</g>
<path class="st0" d="M178.3,181.4c-0.4-0.7-0.3-1.6,0.4-2c0.7-0.5,1.6-0.3,2.1,0.3l38.4,50.4c11.1-9.2,19.8-21.2,25.1-34.9
	l-13.6-9.7c-0.7-0.5-0.8-1.4-0.4-2c0.4-0.7,1.3-0.9,2-0.5l13.4,8c1.5-4.7,2.7-9.5,3.4-14.6c-10.5-5.2-21.3-10.6-30.1-15
	c-0.7-0.4-1-1.2-0.7-2c0.3-0.7,1.2-1.1,1.9-0.8l29.5,11.6c0.1-2,0.2-4,0.2-6v-21.7l-46.6-10.7c-0.8-0.2-1.3-0.9-1.1-1.7
	c0.1-0.8,0.9-1.3,1.7-1.2l46.1,5.5V49.8l-62.4,37.3c-0.2,0.1-0.5,0.2-0.8,0.2c-0.5,0-1-0.2-1.3-0.7c-0.4-0.7-0.3-1.6,0.4-2L250,37.4
	V0H120.8l-0.3,44.9c0,0.8-0.6,1.5-1.4,1.5c0,0,0,0-0.1,0c-0.8,0-1.4-0.6-1.5-1.4l-4.2-45H85.6C77.1,0,69,1.2,61.3,3.5c0,0,0,0,0,0
	l46.6,70.6c0.4,0.7,0.3,1.6-0.4,2c-0.3,0.2-0.6,0.3-0.9,0.3c-0.5,0-0.9-0.2-1.2-0.6l-51.7-68c-0.3-0.4-0.4-0.8-0.3-1.2
	c0-0.2,0.1-0.3,0.2-0.4C39.4,11.9,27.2,21.3,18,33.2l49.1,35c0.7,0.5,0.8,1.4,0.4,2c-0.3,0.4-0.8,0.7-1.3,0.7
	c-0.3,0-0.5-0.1-0.8-0.2L13.5,39.5C5,52.8,0,68.6,0,85.6V87c13.5,3.1,43.6,10.2,69.7,16.4c0.8,0.2,1.3,1,1.1,1.7
	c-0.1,0.7-0.8,1.2-1.5,1.2c-0.1,0-0.1,0-0.2,0L0,96.5v15.9l52.3,1c0.8,0,1.5,0.7,1.5,1.5c0,0.8-0.6,1.5-1.4,1.5l-52.3,2v84.2
	l62.1-37.1c0.7-0.4,1.6-0.2,2,0.5c0.4,0.7,0.3,1.6-0.4,2L0,215v35h5.3c-0.1-0.5,0-1,0.4-1.4l51-47.4c0.6-0.5,1.5-0.5,2.1,0
	c0.6,0.6,0.6,1.5,0.1,2.1L16.1,250h32.5c-0.1-0.1-0.2-0.2-0.2-0.3c-0.3-0.5-0.3-1.1,0-1.6l30.8-48.9c0.4-0.7,1.3-0.9,2-0.5
	c0.7,0.4,1,1.3,0.6,2L57,249.3c-0.2,0.4-0.5,0.6-0.9,0.7h71.6l5.4-76.6c0.1-0.8,0.7-1.4,1.5-1.4c0.8,0,1.4,0.7,1.5,1.5l1.9,76.5
	h26.5c18.2,0,35-5.7,48.9-15.4L178.3,181.4z M194.7,42.9l30.4-41.5c0.3-0.5,0.9-0.7,1.5-0.6l5.9,1.1c0.5,0.1,1,0.5,1.1,1
	c0.2,0.5,0.1,1.1-0.3,1.5l-36.3,40.3c-0.3,0.3-0.7,0.5-1.1,0.5c-0.3,0-0.7-0.1-0.9-0.3C194.4,44.4,194.3,43.5,194.7,42.9z
	 M120.2,121.5c0.7-0.1,1.4,0.2,1.7,0.9c0.3,0.7,0.1,1.4-0.5,1.8l-6,4.1c-0.1,0.1-0.2,0.1-0.4,0.2l-7.3,2.5c-0.2,0.1-0.3,0.1-0.5,0.1
	c-0.5,0-1.1-0.3-1.3-0.8c-0.3-0.7-0.2-1.5,0.4-1.9l7.5-5.5c0.2-0.1,0.4-0.2,0.6-0.3L120.2,121.5z M118.1,83.4
	c0.1,0.1,0.1,0.2,0.2,0.3l1.6,4.9c0.2,0.7-0.1,1.5-0.8,1.8c-0.2,0.1-0.4,0.1-0.6,0.1c-0.5,0-1-0.3-1.3-0.7l-2.8-4.6
	c0-0.1-0.1-0.1-0.1-0.2l-2.5-6c-0.3-0.7,0-1.5,0.7-1.9c0.7-0.4,1.5-0.1,2,0.5L118.1,83.4z M102.2,48.8c0,0,0-0.1-0.1-0.1L91.2,22.5
	c-0.3-0.7,0-1.6,0.7-1.9c0.7-0.3,1.6-0.1,2,0.7l12.7,23.9c0,0.1,0.1,0.1,0.1,0.2l8.3,21.3c0.3,0.7-0.1,1.6-0.8,1.9
	c-0.2,0.1-0.4,0.1-0.6,0.1c-0.5,0-1.1-0.3-1.3-0.8L102.2,48.8z M107.4,108.6c0.1,0,0.1,0,0.2,0.1l4,2c0.7,0.3,1,1.1,0.7,1.8
	c-0.2,0.6-0.8,1-1.4,1c-0.1,0-0.2,0-0.3,0l-4.3-1c-0.1,0-0.3-0.1-0.4-0.1l-6.6-3.5c-0.7-0.4-1-1.2-0.7-1.9c0.3-0.7,1.1-1.1,1.9-0.8
	L107.4,108.6z M98.7,130.5l-13.5,6c-0.1,0-0.1,0.1-0.2,0.1L67.9,141c-0.1,0-0.3,0-0.4,0c-0.6,0-1.2-0.4-1.4-1
	c-0.3-0.7,0.1-1.5,0.8-1.9l16.8-7.8c0.1-0.1,0.2-0.1,0.4-0.1l13.7-2.6c0.7-0.1,1.5,0.3,1.7,1C99.7,129.4,99.4,130.2,98.7,130.5z
	 M62.2,57l16.6,11.6l18.8,18.1L76.7,72.2L62.2,57z M69.4,92.3c-0.7-0.4-1-1.2-0.7-1.9c0.3-0.7,1.1-1.1,1.9-0.8l19.1,6.7
	c0.1,0,0.1,0,0.2,0.1l10.9,5.6c0.7,0.3,1,1.1,0.7,1.8c-0.2,0.6-0.8,1-1.4,1c-0.1,0-0.2,0-0.3,0l-11.9-2.6c-0.1,0-0.3-0.1-0.4-0.1
	L69.4,92.3z M49.8,135.8c-0.1,0-0.1,0-0.2,0l-28.5,3.4c-0.1,0-0.1,0-0.2,0c-0.7,0-1.3-0.5-1.5-1.2c-0.1-0.8,0.4-1.5,1.1-1.7
	l27.9-6.7c0.1,0,0.1,0,0.2,0l26.9-3.4c0.8-0.1,1.5,0.4,1.7,1.2c0.1,0.8-0.3,1.5-1.1,1.7L49.8,135.8z M85.8,172L65.4,191
	c-0.3,0.3-0.7,0.4-1,0.4c-0.4,0-0.7-0.1-1-0.4c-0.6-0.5-0.6-1.4-0.2-2l17.9-22.6c0,0,0.1-0.1,0.1-0.1l24.9-24.9
	c0.6-0.6,1.5-0.6,2.1-0.1c0.6,0.5,0.7,1.4,0.2,2.1l-22.5,28.4C85.9,171.9,85.8,171.9,85.8,172z M122.7,164.3l-8.1,27.8
	c0,0.1,0,0.1-0.1,0.2l-8.7,20.9c-0.2,0.6-0.8,0.9-1.4,0.9c-0.2,0-0.3,0-0.5-0.1c-0.8-0.3-1.2-1.1-0.9-1.8l6.4-22.1c0,0,0-0.1,0-0.1
	l10.3-26.6c0.3-0.7,1.1-1.1,1.9-0.9C122.5,162.8,123,163.6,122.7,164.3z M125.5,132l-7.1,14.4c0,0.1-0.1,0.1-0.1,0.2l-6.9,10.4
	c-0.3,0.4-0.8,0.7-1.3,0.7c-0.3,0-0.5-0.1-0.7-0.2c-0.7-0.4-0.9-1.3-0.6-2l5.7-11.4c0,0,0-0.1,0.1-0.1l8.3-13.3
	c0.4-0.7,1.3-0.9,2-0.5C125.6,130.5,125.9,131.3,125.5,132z M220,147.2l19.6,11.3c0.7,0.4,0.9,1.2,0.6,2c-0.3,0.5-0.8,0.9-1.4,0.9
	c-0.2,0-0.4,0-0.5-0.1l-20.1-7.9c-0.1,0-0.2-0.1-0.2-0.1l-15.5-9.7c-0.7-0.4-0.9-1.3-0.5-1.9c0.3-0.7,1.2-1,1.9-0.7l16,6.3
	C219.9,147.1,220,147.1,220,147.2z M204.3,134.7c0.7,0.3,1.2,1.1,0.9,1.8c-0.2,0.7-0.8,1.1-1.4,1.1c-0.1,0-0.2,0-0.3,0l-23.6-4.7
	c-0.1,0-0.2,0-0.3-0.1l-19-7.6c-0.7-0.3-1.1-1.1-0.9-1.8c0.2-0.7,1-1.2,1.7-1l18.8,3.7c0.1,0,0.1,0,0.2,0.1L204.3,134.7z
	 M196.5,98.1c0.1,0,0.1,0,0.2,0l28.5-3.4c0.8-0.1,1.5,0.4,1.7,1.2c0.1,0.8-0.4,1.5-1.1,1.7l-27.9,6.7c-0.1,0-0.1,0-0.2,0l-26.9,3.4
	c-0.1,0-0.1,0-0.2,0c-0.7,0-1.3-0.5-1.5-1.2c-0.1-0.8,0.3-1.5,1.1-1.7L196.5,98.1z M163.5,90.1l9-9.1c0.6-0.6,1.5-0.6,2.1-0.1
	c0.6,0.5,0.7,1.4,0.2,2.1l-8.2,10.3c0,0.1-0.1,0.1-0.1,0.2l-7.4,6.9c-0.3,0.3-0.7,0.4-1,0.4c-0.4,0-0.7-0.1-1-0.4
	c-0.6-0.5-0.6-1.4-0.2-2l6.5-8.2C163.4,90.2,163.5,90.2,163.5,90.1z M145.9,92.3l6.2-20.6c0-0.1,0.1-0.2,0.1-0.3l7.1-13.5
	c0.4-0.7,1.2-1,1.9-0.7c0.7,0.3,1.1,1.1,0.9,1.8L157,75.2c0,0.1,0,0.1-0.1,0.2l-8.2,17.9c-0.3,0.5-0.8,0.9-1.4,0.9
	c-0.2,0-0.4,0-0.5-0.1C146,93.8,145.6,93,145.9,92.3z M140.2,114.2l2.3-7.5c0-0.1,0.1-0.2,0.1-0.3l2.6-4.9c0.4-0.7,1.2-1,1.9-0.7
	c0.7,0.3,1.1,1.1,0.9,1.8l-1.9,5.9c0,0.1,0,0.1-0.1,0.2l-3,6.5c-0.3,0.5-0.8,0.9-1.4,0.9c-0.2,0-0.4,0-0.5-0.1
	C140.4,115.8,140,115,140.2,114.2z M146.8,198.8c-0.1,0-0.1,0-0.2,0c-0.7,0-1.3-0.5-1.5-1.2l-5.7-29.7c0-0.1,0-0.1,0-0.2l-1.3-23.7
	l-0.4-1.8c0-0.1,0-0.1,0-0.2l-0.5-9.7c0-0.8,0.5-1.5,1.3-1.6c0.8-0.1,1.5,0.4,1.7,1.2l1.6,8.6c0,0.1,0,0.1,0,0.2l0.7,8.4l2.9,15.3
	c0,0.1,0,0.1,0,0.2l2.6,32.7C148.2,198,147.6,198.7,146.8,198.8z M148.5,138c-0.2,0.1-0.5,0.2-0.7,0.2c-0.5,0-0.9-0.2-1.2-0.6
	l-2.2-3.1c-0.1-0.1-0.1-0.2-0.2-0.4l-0.9-2.7c-0.2-0.7,0.1-1.5,0.8-1.8c0.7-0.3,1.5-0.1,1.9,0.5l1.7,2.5c0.1,0.1,0.1,0.2,0.1,0.2
	l1.4,3.4C149.4,136.8,149.1,137.6,148.5,138z M150.1,121.1c-0.7,0-1.3-0.5-1.5-1.2c-0.1-0.8,0.3-1.5,1.1-1.7l9.6-2.4
	c0.1,0,0.1,0,0.2,0l10.4-1.2c0.8-0.1,1.5,0.4,1.7,1.2c0.1,0.8-0.4,1.5-1.1,1.7l-10.2,2.4c-0.1,0-0.1,0-0.2,0l-9.8,1.2
	C150.2,121.1,150.2,121.1,150.1,121.1z M164.8,154.6c-0.2,0.1-0.5,0.2-0.7,0.2c-0.5,0-0.9-0.2-1.2-0.6l-5.9-8.6
	c-0.1-0.1-0.1-0.2-0.2-0.4l-2.5-7.5c-0.2-0.7,0.1-1.5,0.8-1.8c0.7-0.3,1.5-0.1,1.9,0.5l4.6,6.9c0.1,0.1,0.1,0.2,0.1,0.2l3.9,9.2
	C165.7,153.4,165.4,154.2,164.8,154.6z M174.9,147.1c0.5-0.6,1.4-0.7,2-0.2l14.1,10c0.1,0,0.1,0.1,0.2,0.1l16.4,15.7
	c0.6,0.5,0.6,1.4,0.1,2c-0.3,0.4-0.7,0.5-1.2,0.5c-0.3,0-0.6-0.1-0.9-0.3L188,162.5c-0.1-0.1-0.1-0.1-0.2-0.2l-12.8-13.2
	C174.4,148.6,174.4,147.7,174.9,147.1z"/>
</svg>
