<?xml version="1.0" encoding="utf-8"?>
<!-- Generator: Adobe Illustrator 26.0.1, SVG Export Plug-In . SVG Version: 6.00 Build 0)  -->
<svg version="1.1" id="Ebene_1" xmlns="http://www.w3.org/2000/svg" xmlns:xlink="http://www.w3.org/1999/xlink" x="0px" y="0px"
	 viewBox="0 0 1020.8 250" style="enable-background:new 0 0 1020.8 250;" xml:space="preserve">
<style type="text/css">
	.st0{fill:#00003E;}
	.st1{fill:#FFFFFF;}
</style>
<path class="st0" d="M164.4,250H0V85.6C0,38.4,38.4,0,85.6,0H250v164.4C250,211.6,211.6,250,164.4,250z"/>
<g>
	<path class="st1" d="M173.1,124.9c1.9,1.9,2.8,4.2,2.8,7c0,2.8-0.9,5.2-2.8,7l-35.2,35.2c-1.9,1.9-4.2,2.8-7,2.8
		c-2.8,0-5.2-0.9-7-2.8l-45-45c-1.9-1.9-2.8-4.2-2.8-7V86.9c0-2.7,1-5,2.9-6.9c2-2,4.3-2.9,6.9-2.9h35.2c2.8,0,5.2,0.9,7,2.8
		L173.1,124.9z M88.1,99.7c1.5,1.5,3.2,2.2,5.3,2.2c2,0,3.8-0.7,5.3-2.2c1.5-1.5,2.2-3.2,2.2-5.3c0-2-0.7-3.8-2.2-5.3
		c-1.5-1.5-3.2-2.2-5.3-2.2c-2,0-3.8,0.7-5.3,2.2c-1.5,1.5-2.2,3.2-2.2,5.3C85.9,96.5,86.6,98.2,88.1,99.7z M152.2,143.4
		c2.5-2.5,3.8-5.5,3.8-8.9c0-3.4-1.2-6.4-3.6-8.8c-2.4-2.4-5.4-3.6-8.8-3.6c-3.6,0-6.6,1.2-8.9,3.5l-3.8,3.7l-3.5-3.7
		c-2.3-2.3-5.3-3.5-8.9-3.5c-3.4,0-6.4,1.2-8.8,3.6c-2.4,2.4-3.6,5.4-3.6,8.8c0,3.6,1.2,6.6,3.5,8.9l21.3,21.3L152.2,143.4z"/>
</g>
<g>
	<path class="st0" d="M368,121.7l-5,43.6c-0.3,2.4-0.7,3-3,3h-11.2c-2.3,0-3.3-0.9-3-3l8.2-66.7L368,121.7z M358.1,67.1h2
		c0.6,0,1.1,0.3,1.7,1.3l45.9,76.7l45.9-76.7c0.6-1,1.1-1.3,1.7-1.3h2l2.6,19.9l-48.1,80.2c-1.3,1.8-2.1,3-3.3,3h-1.6
		c-1.1,0-2-1.1-3.1-3L355.5,87L358.1,67.1z M461.2,98.6l8.2,66.7c0.3,2.1-0.7,3-3,3h-11.2c-2.3,0-2.8-0.6-3-3l-5-43.6L461.2,98.6z"
		/>
	<path class="st0" d="M500.5,132.8c0,13.2,9.4,23.1,21.9,23.1c5,0,12.1-1.1,19.5-5.4c2.1-1,2.8-1.6,4.3,0.3l4.1,5.1
		c1.4,1.7,1.7,2.6,0.4,4c-6.5,6.4-18.3,9.9-28.7,9.9c-21.4,0-38.2-16.9-38.2-37.6c0-19.5,14.6-35.5,33.4-37.5v13.3
		c-10.2,2.1-16.6,11.2-16.6,23.7V132.8z M507.9,126.9H540c-1-8.4-6-16.9-15.8-18.9V94.6c21.2,1.7,32.2,19.2,32.2,39.8
		c0,2.3-0.4,3.1-2.8,3.1h-45.7C507,134.2,507,130.1,507.9,126.9z"/>
	<path class="st0" d="M570.2,109c-2.3,0-3-0.7-3-3v-7c0-2.3,0.7-3,3-3h5.3V82.1c0-2.3,0.6-3,3-3h10.1c2.3,0,3,0.7,3,3V96h21.9
		c2.3,0,3,0.7,3,3.1v6.8c0,2.3-0.7,3-3,3H570.2z M591.5,116.2v21.3c0,12.8,4.4,17.9,13.1,17.9c3.1,0,5.5-0.3,8.5-1.7
		c2.7-1.4,3.3-1.3,3.8,1.7l1.3,7.1c0.4,2.1,0.3,2.8-1.6,3.8c-5.7,3.5-11.9,3.5-13.8,3.5c-18.7,0-27.4-11.8-27.4-31.4v-22.3H591.5z"
		/>
	<path class="st0" d="M672.5,166.1c-5.5,2.8-9.7,3.8-16.5,3.8c-12.8,0-24.9-7.8-24.9-23.7c0-15.5,12.2-22.9,27.5-22.9
		c4.4,0,8,0.6,13.8,1.7v11.2c-4.3-1.1-6.8-1.4-9.9-1.4c-10.8,0-15.3,4.8-15.3,11.4c0,5.5,4.1,11.4,13.9,11.4c4.3,0,7.7-1.4,11.4-3.7
		V166.1z M679.6,127c0-13.3-3.4-18.6-16.5-18.6c-8.1,0-15.6,1.1-20.9,2.1c-2.3,0.3-2.8-0.6-3.4-2.8l-1.7-6.8
		c-0.6-2.3-0.3-3.1,1.8-3.7c1.7-0.4,14.3-2.7,24.8-2.7c27.1,0,31.9,11.9,31.9,34.4v36.5c0,2.3-0.6,3-3,3h-8.7c-2,0-3.1-1-4.5-3V127z
		"/>
	<path class="st0" d="M760.5,165.3c-5,2.8-9.4,4.5-16.6,4.5c-19.5,0-32.8-17.3-32.8-37.6c0-20.7,13.3-37.8,32.8-37.8
		c6.5,0,12.2,2.1,16.6,5.4v14.6c-3.3-3.1-7.2-5.5-13.1-5.5c-11.8,0-20.3,10.5-20.3,23.3c0,13.2,8.5,23.4,20.3,23.4
		c5.1,0,9.5-2,13.1-5.5V165.3z M767.6,66.5c0-2.3,0.6-3,3-3h10.2c2.3,0,3,0.7,3,3v98.8c0,2.3-0.7,3-3,3h-5c-1.8,0-3.8-0.7-5.5-2.4
		l-2.7-3.8V66.5z"/>
	<path class="st0" d="M844.4,166.1c-5.5,2.8-9.7,3.8-16.5,3.8c-12.8,0-24.8-7.8-24.8-23.7c0-15.5,12.2-22.9,27.5-22.9
		c4.4,0,8,0.6,13.8,1.7v11.2c-4.3-1.1-6.8-1.4-9.9-1.4c-10.8,0-15.3,4.8-15.3,11.4c0,5.5,4.1,11.4,13.9,11.4c4.3,0,7.7-1.4,11.4-3.7
		V166.1z M851.5,127c0-13.3-3.4-18.6-16.5-18.6c-8.1,0-15.6,1.1-20.9,2.1c-2.3,0.3-2.8-0.6-3.4-2.8l-1.7-6.8
		c-0.6-2.3-0.3-3.1,1.8-3.7c1.7-0.4,14.3-2.7,24.8-2.7c27.1,0,32,11.9,32,34.4v36.5c0,2.3-0.6,3-3,3h-8.7c-2,0-3.1-1-4.5-3V127z"/>
	<path class="st0" d="M886,109c-2.3,0-3-0.7-3-3v-7c0-2.3,0.7-3,3-3h5.3V82.1c0-2.3,0.6-3,3-3h10.1c2.3,0,3,0.7,3,3V96h21.9
		c2.3,0,3,0.7,3,3.1v6.8c0,2.3-0.7,3-3,3H886z M907.3,116.2v21.3c0,12.8,4.4,17.9,13.1,17.9c3.1,0,5.5-0.3,8.5-1.7
		c2.7-1.4,3.3-1.3,3.8,1.7l1.3,7.1c0.4,2.1,0.3,2.8-1.6,3.8c-5.7,3.5-11.9,3.5-13.8,3.5c-18.7,0-27.4-11.8-27.4-31.4v-22.3H907.3z"
		/>
	<path class="st0" d="M988.3,166.1c-5.5,2.8-9.7,3.8-16.5,3.8c-12.8,0-24.8-7.8-24.8-23.7c0-15.5,12.2-22.9,27.5-22.9
		c4.4,0,8,0.6,13.8,1.7v11.2c-4.3-1.1-6.8-1.4-9.9-1.4c-10.8,0-15.3,4.8-15.3,11.4c0,5.5,4.1,11.4,13.9,11.4c4.3,0,7.7-1.4,11.4-3.7
		V166.1z M995.4,127c0-13.3-3.4-18.6-16.5-18.6c-8.1,0-15.6,1.1-20.9,2.1c-2.3,0.3-2.8-0.6-3.4-2.8l-1.7-6.8
		c-0.6-2.3-0.3-3.1,1.8-3.7c1.7-0.4,14.3-2.7,24.8-2.7c27.1,0,32,11.9,32,34.4v36.5c0,2.3-0.6,3-3,3h-8.7c-2,0-3.1-1-4.5-3V127z"/>
</g>
</svg>
