<?xml version="1.0" encoding="utf-8"?>
<!-- Generator: Adobe Illustrator 26.3.1, SVG Export Plug-In . SVG Version: 6.00 Build 0)  -->
<svg version="1.1" id="Ebene_1" xmlns="http://www.w3.org/2000/svg" xmlns:xlink="http://www.w3.org/1999/xlink" x="0px" y="0px"
	 viewBox="0 0 1124.3 250" style="enable-background:new 0 0 1124.3 250;" xml:space="preserve">
<style type="text/css">
	.st0{fill:#00003E;}
	.st1{fill:#FFFFFF;}
</style>
<path class="st0" d="M164.4,250H0V85.6C0,38.4,38.4,0,85.6,0H250v164.4C250,211.6,211.6,250,164.4,250z"/>
<g>
	<path class="st0" d="M391.6,170c-25.8-1.8-47.3-24.1-47.3-51.4c0-27.1,20.9-49.4,47.3-51.4v15.1c-18.6,2.4-30,19.5-30,36.4
		c0,17.6,12.2,34.2,30,36.4V170z M398.8,155c17.9-2,30.1-18.6,30.1-36.4c0-17.9-12.2-34.4-30.1-36.4V67.2
		c26.7,2,47.4,24.6,47.4,51.4c0,27.3-21,49.4-47.4,51.4V155z"/>
	<path class="st0" d="M480.6,194.3c0,2.3-0.7,3-3,3h-10.2c-2.3,0-3-0.7-3-3V99c0-2.3,0.7-3,3-3h5c1.7,0,3.7,0.9,5.4,2.4l2.8,3.8
		V194.3z M487.7,99c4.8-2.8,9.2-4.5,16.6-4.5c19.3,0,32.8,17.5,32.8,37.6c0,20.7-13.5,37.8-32.8,37.8c-6.7,0-12.2-2.1-16.6-5.4
		v-14.6c3.3,3.1,7.1,5.5,13.1,5.5c11.8,0,20.2-10.5,20.2-23.3c0-13.2-8.4-23.4-20.2-23.4c-5.1,0-9.5,2-13.1,5.5V99z"/>
	<path class="st0" d="M566.1,132.8c0,13.2,9.4,23.1,21.9,23.1c5,0,12.1-1.1,19.5-5.4c2.1-1,2.8-1.6,4.3,0.3l4.1,5.1
		c1.4,1.7,1.7,2.6,0.4,4c-6.5,6.4-18.3,9.9-28.7,9.9c-21.4,0-38.2-16.9-38.2-37.6c0-19.5,14.6-35.5,33.4-37.5v13.3
		c-10.2,2.1-16.6,11.2-16.6,23.7V132.8z M573.5,126.9h32.1c-1-8.4-6-16.9-15.8-18.9V94.6c21.2,1.7,32.2,19.2,32.2,39.8
		c0,2.3-0.4,3.1-2.8,3.1h-45.7C572.6,134.2,572.6,130.1,573.5,126.9z"/>
	<path class="st0" d="M655.9,165.3c0,2.3-0.7,3-3,3h-10.2c-2.3,0-3-0.7-3-3V99c0-2.3,0.7-3,3-3h5.1c2.7,0,4.4,0.4,5.5,1.7l2.6,4
		V165.3z M663,98.3c3.4-2.6,7.7-3.8,12.9-3.8c15.6,0,27.5,8.4,27.5,32.8v38.1c0,2.3-0.7,3-3,3h-10.2c-2.3,0-3-0.7-3-3v-34.5
		c0-15.1-5.5-21.9-15.5-21.9c-4.1,0-6.7,1.4-8.8,3.3V98.3z"/>
	<path class="st0" d="M767,82.3c-17.8,1.6-30.4,18.3-30.4,36.4c0,17.7,12.4,34.5,30.4,36.4V170c-26.4-1.6-47.7-24.1-47.7-51.4
		c0-27.4,21.3-49.7,47.7-51.4V82.3z M774.3,155c7.1-0.7,13.8-3.4,19.2-7.7v-17.8H773c-2.3,0-3-0.6-3-3v-8.7c0-2.3,0.7-3,3-3h34.6
		c2.4,0,3,0.7,3,3v32.2c0,2.3-0.7,3.5-2.3,5.1c-8.8,8.7-21.6,13.8-34.1,14.8V155z M774.3,67.2c11.9,1,24.4,6.1,33.1,14.3
		c1.7,1.7,1.3,2.6-0.3,4.4l-6.5,7.1c-1.6,1.6-2.7,2-4.4,0.3c-6-6.2-13.8-9.9-21.9-10.9V67.2z"/>
	<path class="st0" d="M847.7,165.3c-0.1,2.3-0.7,3-3,3h-10.2c-2.3,0-3-0.7-3-3V99c0-2.3,0.7-3,3-3h5.1c4.4,0,5,0.9,8.1,4.4V165.3z
		 M854.8,99.6c3.8-2.7,8.9-5.1,18.6-5.1c2.8,0,3.1,0.9,2.8,2.8l-1.6,10.4c-0.4,2.3-1.1,2.8-3.4,2.8c-7,0-12.1,1.8-16.5,5.5V99.6z"/>
	<path class="st0" d="M925.5,166.1c-5.5,2.8-9.7,3.8-16.5,3.8c-12.8,0-24.8-7.8-24.8-23.7c0-15.5,12.2-22.9,27.5-22.9
		c4.4,0,8,0.6,13.8,1.7v11.2c-4.3-1.1-6.8-1.4-9.9-1.4c-10.8,0-15.3,4.8-15.3,11.4c0,5.5,4.1,11.4,13.9,11.4c4.3,0,7.7-1.4,11.4-3.7
		V166.1z M932.6,127c0-13.3-3.4-18.6-16.5-18.6c-8.1,0-15.6,1.1-20.9,2.1c-2.3,0.3-2.8-0.6-3.4-2.8l-1.7-6.8
		c-0.6-2.3-0.3-3.1,1.8-3.7c1.7-0.4,14.3-2.7,24.8-2.7c27.1,0,32,11.9,32,34.4v36.5c0,2.3-0.6,3-3,3h-8.7c-2,0-3.1-1-4.5-3V127z"/>
	<path class="st0" d="M985.9,194.3c0,2.3-0.7,3-3,3h-10.2c-2.3,0-3-0.7-3-3V99c0-2.3,0.7-3,3-3h5c1.7,0,3.7,0.9,5.4,2.4l2.8,3.8
		V194.3z M993,99c4.8-2.8,9.2-4.5,16.6-4.5c19.3,0,32.8,17.5,32.8,37.6c0,20.7-13.5,37.8-32.8,37.8c-6.7,0-12.2-2.1-16.6-5.4v-14.6
		c3.3,3.1,7.1,5.5,13.1,5.5c11.8,0,20.2-10.5,20.2-23.3c0-13.2-8.4-23.4-20.2-23.4c-5.1,0-9.5,2-13.1,5.5V99z"/>
	<path class="st0" d="M1076.7,165.3c0,2.3-0.6,3-3,3h-10.2c-2.1,0-3-0.7-3-3V66.5c0-2.3,0.9-3,3-3h10.2c2.3,0,3,0.7,3,3V165.3z
		 M1083.8,98.3c3.3-2.3,7.5-3.8,12.9-3.8c15.6,0,27.5,8.4,27.5,32.8v38.1c0,2.3-0.6,3-3,3h-10.2c-2.1,0-3-0.7-3-3v-34.5
		c0-15.1-5.4-21.9-15.5-21.9c-4,0-6.5,1.6-8.8,3.3V98.3z"/>
</g>
<path class="st1" d="M201.3,175c-2.7,0-4.8-2.2-4.8-4.8c0-2.7,2.2-4.8,4.8-4.8c2.7,0,4.8,2.2,4.8,4.8C206.1,172.8,204,175,201.3,175
	L201.3,175z M135.9,180.4c5.2-7.6,11.5-18.4,15.3-31.4c8.1,1.7,15.7,4.4,23.9,8.5L135.9,180.4L135.9,180.4z M96.4,105.5
	c-1.3,5.3-2.1,10.9-2.3,16.8c-7.4,0-14.6,0-22.6,0v-26C79.5,100.7,88,103.6,96.4,105.5L96.4,105.5z M48.7,84.4
	c-2.7,0-4.8-2.2-4.8-4.8c0-2.7,2.2-4.8,4.8-4.8c2.7,0,4.8,2.2,4.8,4.8C53.5,82.3,51.3,84.4,48.7,84.4z M112.8,70.4
	c-5.3,7.4-11.3,17.7-15.1,30.2c-7.6-1.7-14.8-4.2-22.5-8L112.8,70.4L112.8,70.4z M127,141.6c0-2,0-4,0-6c4.2-0.8,7.5-4,8.5-8.1
	c5.1,0,9.9,0,14.7,0c-0.2,5.5-1,10.8-2.2,15.8C141.6,142.2,134.7,141.7,127,141.6z M127,146.7c7.2,0.1,13.6,0.5,19.6,1.4
	c-5.1,16.7-14.3,29.8-19.5,36.3C127.1,171.9,127,159.3,127,146.7z M97.8,149.7c3.8,12.6,9.8,22.8,15.1,30.1l-38.5-22.3
	C79.1,155.4,87.1,152.1,97.8,149.7L97.8,149.7z M114.3,127.4c1,4,4.2,7.2,8.3,8.1c0,2,0,4.1,0,6.1c-7.3,0.1-14.5,0.8-21.7,2.2
	c-1.2-5.1-2.1-10.6-2.2-16.3C103.7,127.4,108.9,127.4,114.3,127.4L114.3,127.4z M122.5,108.2c0,2,0,4,0,6.1c-4.1,0.9-7.3,4-8.2,8.1
	c-5.4,0-10.6,0-15.7,0c0.2-5.6,1-11,2.2-16C107.5,107.5,114.6,108.1,122.5,108.2L122.5,108.2z M122.5,68.7c0,11.3,0,22.8,0,34.3
	c-7.5-0.1-14.1-0.6-20.3-1.6c5.2-17.1,14.9-29.8,20.3-36.1L122.5,68.7L122.5,68.7z M151.1,100.4c-3.8-12.7-9.9-23.3-15.1-30.7
	l39.5,22.9C170.6,94.8,162.2,98.1,151.1,100.4L151.1,100.4z M127,68.7l0-3.4c5.1,6.3,14.4,19.2,19.6,36c-6.5,1.1-13,1.7-19.6,1.8
	C127,91.6,127,80.2,127,68.7L127,68.7z M124.9,130.7c-3.2,0-5.8-2.6-5.8-5.8c0-3.2,2.6-5.8,5.8-5.8c3.2,0,5.8,2.6,5.8,5.8
	C130.7,128.1,128.1,130.7,124.9,130.7L124.9,130.7z M122.6,184.8c-5.4-6.1-15.1-18.9-20.4-36.1c6.7-1.2,13.5-1.9,20.3-2
	C122.5,159.4,122.6,172.1,122.6,184.8L122.6,184.8z M135.5,122.3c-1-4.1-4.3-7.3-8.5-8.1l0-6c7-0.1,14-0.7,20.9-1.9
	c1.2,5.1,2.1,10.5,2.3,16.1C145.5,122.3,140.6,122.3,135.5,122.3z M177.8,122.3c-7.3,0-15.6,0-23.4,0c-0.2-5.9-1.1-11.6-2.4-16.9
	c12-2.5,21.4-6.1,25.8-8.4L177.8,122.3L177.8,122.3z M71.4,127.4c8.1,0,15.3,0,22.7,0c0.2,6.1,1,11.9,2.3,17.2
	c-11.5,2.6-19.8,6.1-24.9,8.5V127.4z M152.3,144c1.2-5.2,1.9-10.8,2.1-16.6c7.8,0,16.1,0,23.5,0v25.9
	C169.8,148.8,161,145.9,152.3,144L152.3,144z M201.3,158.9c-3,0-5.9,1.2-7.9,3.1c-3.1-1.9-6-3.7-9-5.3V90.6l-59.7-34.8L68.6,89
	c-3-1.7-6.1-3.5-9.4-5.6c0.4-1.2,0.7-2.5,0.7-3.8c0-6.2-5-11.2-11.2-11.2c-6.2,0-11.2,5-11.2,11.2c0,6.2,5,11.2,11.2,11.2
	c3,0,5.6-1.2,7.6-3.1c3,1.9,6.3,3.6,8.5,5.2v66.8l60,34.6l56.9-33.2c3.1,1.7,6.1,3.5,9,5.4c-0.4,1.2-0.7,2.5-0.6,3.8
	c0,6.2,5.1,11.2,11.2,11.2s11.2-5,11.2-11.2C212.6,163.9,207.5,158.9,201.3,158.9L201.3,158.9z"/>
</svg>
