<?xml version="1.0" encoding="utf-8"?>
<!-- Generator: Adobe Illustrator 25.3.1, SVG Export Plug-In . SVG Version: 6.00 Build 0)  -->
<svg version="1.1" id="Ebene_1" xmlns="http://www.w3.org/2000/svg" xmlns:xlink="http://www.w3.org/1999/xlink" x="0px" y="0px"
	 viewBox="0 0 835.1 250" style="enable-background:new 0 0 835.1 250;" xml:space="preserve">
<style type="text/css">
	.st0{fill:#FFFFFF;}
	.st1{fill:#00003E;}
</style>
<path class="st0" d="M164.4,250H0V85.6C0,38.4,38.4,0,85.6,0H250v164.4C250,211.6,211.6,250,164.4,250z"/>
<g>
	<path class="st1" d="M184.1,126.5c0,32.1-26,58.1-58,58.1c-32,0.1-58.2-26-58.2-58c0-20.7,10.8-38.9,27.1-49.2c1.4-0.9,3.2-0.4,4,1
		l2.8,4.9c0.7,1.3,0.3,2.9-0.9,3.7c-13,8.3-21.6,22.9-21.6,39.5c0,25.9,21,46.9,46.9,46.9s46.9-21,46.9-46.9
		c0-16.6-8.6-31.2-21.6-39.5c-1.2-0.8-1.6-2.4-0.9-3.7l2.8-4.9c0.8-1.4,2.6-1.9,4-1C173.3,87.7,184.1,105.8,184.1,126.5z M128.8,134
		h-5.6c-1.5,0-2.8-1.3-2.8-2.8V69.3c0-1.5,1.3-2.8,2.8-2.8h5.6c1.5,0,2.8,1.3,2.8,2.8v61.9C131.6,132.7,130.3,134,128.8,134z"/>
</g>
<g>
	<path class="st0" d="M346.9,109c-2.3,0-3-0.7-3-3v-7c0-2.3,0.7-3,3-3h5.3V82.1c0-2.3,0.6-3,3-3h10.1c2.3,0,3,0.7,3,3V96H390
		c2.3,0,3,0.7,3,3.1v6.8c0,2.3-0.7,3-3,3H346.9z M368.2,116.2v21.3c0,12.8,4.4,17.9,13.1,17.9c3.1,0,5.5-0.3,8.5-1.7
		c2.7-1.4,3.3-1.3,3.8,1.7l1.3,7.1c0.4,2.1,0.3,2.8-1.6,3.8c-5.7,3.5-11.9,3.5-13.8,3.5c-18.7,0-27.4-11.8-27.4-31.4v-22.3H368.2z"
		/>
	<path class="st0" d="M450.4,166.1c-3.4,2.6-7.7,3.8-12.9,3.8c-15.6,0-27.5-8.4-27.5-32.8V99c0-2.3,0.7-3,3-3h10.2c2.3,0,3,0.7,3,3
		v34.6c0,14.9,5.5,21.7,15.5,21.7c4.1,0,6.7-1.4,8.8-3.3V166.1z M457.5,99c0-2.3,0.7-3,3-3h10.2c2.3,0,3,0.7,3,3v66.3
		c0,2.3-0.7,3-3,3h-5.1c-2.7,0-4.4-0.4-5.5-1.7l-2.6-4V99z"/>
	<path class="st0" d="M514.6,165.3c-0.1,2.3-0.7,3-3,3h-10.2c-2.3,0-3-0.7-3-3V99c0-2.3,0.7-3,3-3h5.1c4.4,0,5,0.9,8.1,4.4V165.3z
		 M521.7,99.6c3.8-2.7,8.9-5.1,18.6-5.1c2.8,0,3.1,0.9,2.8,2.8l-1.6,10.4c-0.4,2.3-1.1,2.8-3.4,2.8c-7,0-12.1,1.8-16.5,5.5V99.6z"/>
	<path class="st0" d="M574.1,165.3c0,2.3-0.7,3-3,3h-10.2c-2.3,0-3-0.7-3-3V99c0-2.3,0.7-3,3-3h5.1c2.7,0,4.4,0.4,5.5,1.7l2.6,4
		V165.3z M581.2,98.3c3.4-2.6,7.7-3.8,12.9-3.8c15.6,0,27.5,8.4,27.5,32.8v38.1c0,2.3-0.7,3-3,3h-10.2c-2.3,0-3-0.7-3-3v-34.5
		c0-15.1-5.5-21.9-15.5-21.9c-4.1,0-6.7,1.4-8.8,3.3V98.3z"/>
	<path class="st0" d="M684.8,170c-25.8-1.8-47.3-24.1-47.3-51.4c0-27.1,20.9-49.4,47.3-51.4v15.1c-18.6,2.4-30,19.5-30,36.4
		c0,17.6,12.2,34.2,30,36.4V170z M692.1,155c17.9-2,30.1-18.6,30.1-36.4c0-17.9-12.2-34.4-30.1-36.4V67.2
		c26.7,2,47.4,24.6,47.4,51.4c0,27.3-21,49.4-47.4,51.4V155z"/>
	<path class="st0" d="M774.6,165.3c0,2.3-0.7,3-3,3h-10.2c-2.3,0-3-0.7-3-3V99c0-2.3,0.7-3,3-3h5.1c2.7,0,4.4,0.4,5.5,1.7l2.6,4
		V165.3z M781.7,98.3c3.4-2.6,7.7-3.8,12.9-3.8c15.6,0,27.5,8.4,27.5,32.8v38.1c0,2.3-0.7,3-3,3h-10.2c-2.3,0-3-0.7-3-3v-34.5
		c0-15.1-5.5-21.9-15.5-21.9c-4.1,0-6.7,1.4-8.8,3.3V98.3z"/>
</g>
</svg>
